<svg version="1.1" xmlns="http://www.w3.org/2000/svg" xmlns:xlink="http://www.w3.org/1999/xlink" width="285.37285" height="333.8512" viewBox="0,0,285.37285,333.8512"><g transform="translate(-96.78313,-27.86036)"><g data-paper-data="{&quot;isPaintingLayer&quot;:true}" fill-rule="nonzero" stroke-linecap="butt" stroke-linejoin="miter" stroke-miterlimit="10" stroke-dasharray="" stroke-dashoffset="0" style="mix-blend-mode: normal"><g><path d="M329.39142,358.293c0,0 0.98995,0.14142 0.84853,1.13137c-0.14142,0.98995 -1.13137,0.84853 -1.13137,0.84853c-0.03019,-0.00432 -0.06038,-0.00862 -0.09058,-0.01294c-0.11572,0.02299 -0.19657,0.02299 -0.19657,0.02299h-0.28572c-0.10629,0 -0.21254,0.00013 -0.31877,0.00037c-0.06053,0.22164 -0.23188,0.53535 -0.71694,0.53535c-0.47778,0 -0.65119,-0.30436 -0.71413,-0.52531c-2.29911,0.02627 -4.59001,0.09774 -6.88945,0.16229c-10.69081,2.15104 -20.95533,0.25587 -31.64641,0.25587c-6.09524,0 -12.19047,0 -18.28571,0c-4.39247,0 -8.87034,-0.3534 -13.16353,0.70679c-10.3656,0.05516 -20.74543,0.15035 -31.12218,0.15035c-8.48346,0 -16.95016,0.14285 -25.42857,0.14285c-6.79101,0 -13.81817,0.01864 -20.53901,-0.7204c0,0 -0.75581,-0.08398 -0.87599,-0.76458c-0.36463,-0.43907 0.02052,-0.92052 0.02052,-0.92052c0.83501,-0.91721 -0.3177,-4.47564 -0.39775,-5.83125c-0.14695,-2.48847 1.8342,-5.2165 2.00673,-7.81363c1.0207,-4.42302 0.52079,-9.25722 0.52079,-13.76895v-0.09347c-0.34904,-5.33614 -3.37472,-9.07265 -1.02155,-14.62678c1.0148,-1.35152 0.59617,-3.31558 1.82946,-4.57479c0.03752,-0.03832 0.07547,-0.07536 0.11383,-0.1112c-2.49178,-0.74715 -5.19344,-1.71332 -7.02949,-3.39203c-1.44141,-1.31789 -2.40895,-3.01898 -3.64599,-4.48764c-0.90258,-1.68361 -2.73041,-2.29644 -4.26637,-3.32611c-1.78039,-1.19354 -3.81725,-2.81205 -5.33163,-4.40389c-1.33928,1.02906 -3.37893,1.58559 -4.65718,0.60451c-0.88099,-0.67617 -0.9763,-2.03133 -1.87193,-2.6978c-1.42692,-1.06182 -3.04582,-1.98836 -4.50117,-3.06044c-2.46408,-1.02849 -2.2777,0.1419 -4.30988,0.93045c-3.46288,1.34371 -8.98409,0.05305 -11.43502,-2.64171c-3.54735,-4.88556 -6.1385,-10.42486 -10.46417,-14.75279c-1.88675,-1.7159 -3.96542,-4.07087 -4.89765,-6.46363l-0.01294,-0.01573c-0.02148,-0.01139 -0.03333,-0.01893 -0.03333,-0.01893c-1.54748,-0.98989 -2.32198,-2.0156 -3.6728,-3.18021c-1.46025,-1.25894 -3.38279,-1.77075 -4.76133,-3.22896c-0.92239,-0.97569 -1.40623,-2.2554 -2.30892,-3.25127c-1.78614,-1.98615 -3.12265,-4.36751 -4.69614,-6.53118c-2.03311,-2.79571 -3.89644,-4.3228 -4.70952,-7.84839c-0.65263,-2.45019 -1.29085,-5.15497 -0.83309,-7.72966c0.37476,-2.10787 0.77132,-3.86672 -0.6666,-5.62345l-0.21379,-0.62196c0,0 -0.06796,-0.33981 0.11949,-0.60366c-0.46745,-2.53232 -1.66994,-6.02634 -0.26188,-8.28323c0.72092,-1.15552 2.10699,-1.00495 2.90787,-1.9376c0.7359,-0.85698 1.07738,-1.8185 1.97202,-2.55531c1.71631,-1.37184 1.15661,-3.02637 2.08173,-4.90525c0.83765,-1.70123 3.50847,-2.7412 4.85646,-4.09825l0.52941,-0.52942c0,0 0.11824,-0.11823 0.29887,-0.18722c1.63743,-2.02316 3.8448,-2.80578 5.73127,-4.54718c1.99712,-1.84354 3.22117,-3.95052 4.47107,-6.29505c1.91537,-4.47892 4.35622,-8.765 6.92296,-12.89722c1.18089,-1.90114 2.29486,-4.0972 4.23292,-5.35222l-0.15052,0.06204c0,0 0.31316,-0.62631 0.93947,-0.36599c3.28918,-0.31456 7.36743,-3.41816 8.62458,-6.69815c0.32931,-0.85919 0.18975,-1.66133 0.65017,-2.53695c0.71917,-2.37889 1.32573,-4.5396 2.36387,-6.78955l0.11342,-0.20092c-0.00887,-0.10109 0.0006,-0.17215 0.0006,-0.17215c0.46999,-3.51337 1.45712,-6.27227 4.10943,-8.79778c1.31556,-1.25267 3.09431,-2.06102 4.08193,-3.6172c2.04952,-5.35462 4.71849,-11.59357 5.09659,-17.39321c-0.0003,-0.5407 -0.00041,-1.0814 -0.00041,-1.6221v-0.37284c-0.14569,-0.30956 0.01021,-0.64734 0.01021,-0.64734c2.40113,-5.18981 10.39285,-4.66835 15.24502,-6.53982c2.28397,-0.01769 4.23372,-0.60625 6.59178,-0.30135l0.67117,0.05512c0,0 0.45612,0.038 0.62602,0.41096c4.33787,-0.1292 8.75426,0.2335 13.07639,0.2335c1.98114,0 4.14317,0.23166 6.10188,-0.10568c1.2784,-0.22017 2.78683,-1.04784 4.11506,-0.89322c0.6311,0.07346 1.09797,0.64521 1.60535,1.02765c0.17648,0.13303 1.75253,-0.73777 1.85658,-0.76533c1.7867,-0.47329 3.83862,-0.31729 5.66112,-0.6049c2.36083,-0.46329 3.8805,-0.41918 5.91019,-1.86597c0.52129,-0.37158 0.26557,-2.88301 0.36003,-3.55849l0.1016,-0.33165c-0.05005,-0.14668 -0.05005,-0.27006 -0.05005,-0.27006c0,-4.88487 0.05882,-9.76324 0.05882,-14.64706c0,-2.9639 -1.50403,-7.24314 -0.52756,-10.04189c-1.62809,0.03339 -3.24954,0.09587 -4.88125,0.19975l-0.79395,0.11402c0,0 -0.37638,0.05377 -0.63146,-0.18324c-3.9637,-1.50914 -8.33314,6.629 -9.86877,9.23585c-3.86793,4.337 -7.4851,9.48412 -12.64311,12.26651c-0.85914,0.52816 -1.49615,0.86843 -2.49573,1.03263l-0.23169,0.00872c0,0 -0.25738,0 -0.47058,-0.15077c-5.74372,0.08137 -7.80504,-4.50421 -9.26763,-9.70207c-0.14828,-2.147 -1.20271,-4.37149 -1.58857,-6.53127c-0.65532,-3.66799 -0.54181,-7.44772 -0.54061,-11.1697c-0.08778,-1.66781 -0.22959,-3.36191 -0.23555,-5.01972v-0.64706c0,0 0,-0.55242 0.4741,-0.70905c0.90634,-1.95828 0.55247,-4.62044 0.94946,-6.71752c0.45781,-2.41844 1.61818,-4.57907 1.99582,-7.03296c0.80815,-5.90431 3.54768,-11.43646 5.1451,-17.17888l0.15854,-0.44466c-0.06176,-0.26085 0.04351,-0.50649 0.04351,-0.50649c0.88897,-2.05222 1.94437,-3.52711 3.19599,-4.65517c-0.02134,-0.09713 -0.02134,-0.16703 -0.02134,-0.16703c0.00211,-3.49204 1.4808,-3.43727 3.98938,-5.04129c2.49229,-1.5936 4.59875,-2.8861 7.39799,-4.07934c3.22616,-0.85626 6.31185,-1.27882 9.65675,-1.27643c1.77014,0.00126 3.76321,0.17545 4.58184,1.66586c4.31547,-2.04572 9.66673,-1.83419 14.30385,-2.19322c4.4036,-0.31455 10.86346,-2.15056 15.15858,-0.13226l0.13426,-0.11722c3.90306,-3.11969 7.70152,-4.66308 12.77094,-4.09487c3.59014,0.82397 7.37673,1.52296 10.8407,2.80085c1.17244,0.43252 3.29569,1.10407 3.93344,2.29718c0.16399,0.3068 0.24835,0.64746 0.32933,0.98962c0.04023,0.03816 0.06212,0.06553 0.06212,0.06553c0.86588,1.12914 2.37013,1.08478 3.42338,1.95075c2.36516,1.94459 4.07768,7.11733 5.35713,9.86794c2.54997,4.13389 5.13215,8.8607 5.26137,13.81698c3.56694,2.54875 5.18798,9.54912 6.5548,13.36109c0.7692,2.50079 1.80157,4.82334 1.80296,7.47176v0.58823c0,0 0,0.12744 -0.05254,0.27726c0.47503,3.10478 1.41628,6.49087 0.9263,9.65941c-0.26541,1.71635 -1.22566,3.53237 -1.81179,5.17041c-1.59736,3.42857 -6.84818,6.88751 -10.72377,6.21658c-2.09971,-0.3635 -3.42807,-2.2598 -5.33206,-2.99039c-1.91114,-0.95363 -2.60642,-2.23864 -4.12328,-3.46689c-3.26827,-2.64643 -7.09407,-5.11738 -10.9343,-6.70903c-0.6343,-0.29264 -1.23675,-0.5791 -1.88718,-0.8047c0.08745,4.39898 2.32106,10.59862 0.1827,14.70556c-0.01078,0.19644 -0.09861,0.35696 -0.12637,0.4032c0.00221,4.18024 0.05421,8.80004 -1.07876,12.91773c0.41731,0.06418 0.86859,0.2675 1.3264,0.62326c1.24462,0.96716 2.28188,2.43116 2.89358,4.05729c4.76695,-1.37562 11.42576,-0.22146 16.34401,-0.22146c6.08493,0.02757 12.65383,-1.03767 18.67925,-0.1121c5.49941,0.50178 13.09759,-0.98387 17.97171,1.84949c1.26103,0.63052 2.47428,1.31245 3.64741,2.09445l0.50762,0.24733c0,0 0.56708,0.28354 0.39776,0.85062c1.33071,1.01829 1.68554,2.35741 2.60446,3.82775c0.81016,1.29633 2.49094,1.95029 3.43381,3.1829c1.09723,1.43441 1.60484,3.16981 2.65537,4.59927c1.00245,1.33683 1.94425,2.70332 2.89571,4.07749l0.31347,0.5c0,0 0.02828,0.04524 0.05768,0.11914c0.02398,0.03662 0.03596,0.0606 0.03596,0.0606c1.31624,2.69859 3.95876,2.7029 5.72266,4.73025c1.44401,1.65968 3.04924,4.13351 4.16021,6.05469c2.89743,3.41024 6.75748,5.57178 9.03533,9.46669l-0.05534,-0.12849c0,0 0.52549,0.35032 0.29056,0.89024c0.95691,2.40786 2.11726,4.82111 4.21925,6.43188c1.68693,1.29271 3.53132,2.19661 5.1067,3.62806c2.62063,2.35857 5.90762,3.05258 8.74477,4.99663c2.20254,1.50921 1.9737,2.89891 4.51006,3.46654c0.00522,-0.00344 0.01051,-0.00688 0.01587,-0.01029c0.63274,-0.40266 1.0354,0.23009 1.0354,0.23009c0.06923,0.10908 0.13455,0.21947 0.19624,0.3311l0.04426,0.02705c0,0 0.4749,0.30221 0.34004,0.79442c0.72796,1.85721 0.70149,3.96503 0.9947,5.9367c0.12249,0.82368 1.28622,1.51813 1.78685,2.13577c1.01799,1.25592 1.49851,2.52077 2.00522,4.042c0.58765,1.52717 1.99166,2.65013 2.48061,4.14754c0.64044,1.96135 -0.67565,3.15436 -0.73233,4.8615l-0.3367,0.45492c0.05275,0.16749 0.04234,0.31333 0.04234,0.31333c-0.15488,2.16823 0.01581,4.84229 -0.68723,6.90012c-1.03604,3.03253 -2.89644,5.62467 -3.93172,8.64062c-1.66821,2.1249 -2.16577,5.06573 -2.76278,7.61818l-0.08939,0.25131c0.06126,0.15986 0.06126,0.30104 0.06126,0.30104c-0.02526,4.45604 -5.47247,8.73866 -7.7613,12.33906c-1.52932,2.46695 -0.7228,5.27603 -2.02377,7.87871l-0.00615,0.0111c0.07324,0.25948 -0.02349,0.51096 -0.02349,0.51096c-1.78798,4.64756 -4.78319,8.38195 -7.15711,12.70788c-2.84232,2.87721 -5.94774,2.1682 -9.19264,3.86255c-2.23685,1.16798 -2.5427,4.02742 -4.00938,5.81695l-0.33996,0.34431c0,0 -0.39608,0.39609 -0.84594,0.16136c-0.77173,0.09098 -1.69891,0.10018 -2.25316,0.58196c-2.7055,2.35176 -3.83149,6.95346 -6.01279,9.7713c-0.35537,0.47323 -0.96974,1.68643 -1.73115,2.02195c-0.12573,0.16732 -0.29305,0.25098 -0.29305,0.25098c-2.02463,1.01207 -3.0806,2.53383 -4.82561,3.86962c-0.59191,0.4531 -1.51514,0.81336 -2.10951,1.37281c0.19144,0.37914 -0.08785,0.76317 -0.08785,0.76317c-0.19876,0.27303 -0.39641,0.53127 -0.59395,0.77713c-0.12833,1.44881 0.50285,3.34002 0.71137,4.46825c2.0064,5.59603 1.43779,11.63694 1.43779,17.48996c-0.00066,1.36705 0.17175,2.64222 0.60857,3.9393l0.26538,0.57387c0,0 0.07961,0.17513 0.06949,0.38831c0.95778,2.68656 1.9026,6.51761 0.62586,9.13696c-0.89411,1.83435 -2.50101,3.04086 -3.60484,4.71912c-0.06291,1.00272 0.66093,1.76337 0.84629,2.7516c0.53179,2.83508 0.60506,6.10607 0.83139,8.99322l0.01945,0.12583c0.16287,0.09743 0.25754,0.22997 0.25754,0.22997c2.14625,3.02846 2.64547,9.20443 2.15724,13.4745c0.2962,0.04231 0.59238,0.08463 0.88858,0.12694zM200.25,359.71152c8.47836,0 16.94513,-0.14285 25.42857,-0.14285c10.29088,0 20.59971,-0.20155 30.87782,-0.13537c4.35494,-1.1029 8.94898,-0.72178 13.40789,-0.72178c6.09524,0 12.19047,0 18.28571,0c10.62606,0 20.79556,1.86941 31.41877,-0.24288c2.44284,-0.0811 4.87436,-0.15485 7.3166,-0.17811c0.49253,-3.71154 0.14728,-9.46156 -1.61197,-12.35163c-0.57869,-0.02224 -0.6735,-0.63855 -0.6735,-0.63855l-0.12144,-0.7929c-0.21508,-2.85372 -0.30518,-6.0833 -0.81567,-8.88913c-0.24927,-1.37005 -0.90309,-1.98699 -0.80077,-3.4837c1.07078,-1.82261 2.72312,-3.05894 3.68928,-4.92794c1.18912,-2.30029 -0.01749,-6.18093 -0.85354,-8.40409c0,0 -0.0388,-0.10346 -0.0469,-0.24586l-0.13884,-0.30973c-0.48073,-1.45527 -0.68484,-2.88117 -0.68554,-4.41364c0,-5.7287 0.56351,-11.6197 -1.38574,-17.09827c-0.18338,-0.96588 -0.50366,-2.14096 -0.65557,-3.31191c-1.21623,1.20909 -2.51159,2.17322 -4.10074,3.41363c-2.22193,1.73433 -3.02216,3.27273 -5.95167,4.03431c-1.84798,0.01363 -4.26829,0.41053 -6.06235,-0.07968c-2.23002,-0.60933 -3.05718,-2.85363 -4.70486,-4.11145c-0.41225,-0.31471 -1.07694,-0.10215 -1.50493,-0.39508c-1.02904,-0.7043 -1.81597,-2.88679 -2.20591,-4.00116c-0.09449,-1.11644 -0.2623,-3.33435 -1.08725,-4.15814c-0.45797,-0.45733 -1.28764,-0.30273 -1.82449,-0.66422c-0.82136,-0.55309 -3.01416,-2.7745 -3.60091,-3.58863c-1.04418,-1.44885 -0.28418,-4.03133 -0.53471,-5.719c-0.40971,-0.97108 -1.23275,-1.60399 -1.62219,-2.57339c-0.99002,-2.4644 -0.48776,-6.43774 1.03839,-8.49111l0.3516,-0.29792c0.36005,-1.09156 0.95915,-1.58135 1.83822,-1.90463c-0.49426,-1.15857 -0.42139,-3.37631 -0.12032,-4.24488c1.38199,-3.98699 4.96608,-4.65831 8.50106,-6.0733c1.15416,-0.01633 2.30829,-0.01555 3.46251,-0.01484c0.28341,-0.75109 1.36931,-1.75811 1.78749,-2.11565c2.41149,-2.06183 3.33803,-4.53698 4.9006,-7.24146c-0.11055,-0.28003 0.00237,-0.57362 0.00237,-0.57362c0.57491,-1.4789 1.61474,-4.33975 2.88488,-5.32143c0.11291,-0.08727 0.22586,-0.17351 0.33844,-0.25903c-0.86064,-5.48883 -5.50896,-9.6946 -4.25667,-15.60157c1.22373,-5.70867 1.15983,-11.84411 1.15983,-17.66638c0.01187,-2.3994 1.24417,-4.04031 3.78724,-3.24832c1.83612,0.57182 3.27057,2.31234 4.89143,3.31931c1.89315,1.17612 3.79241,2.11269 5.46626,3.62597c1.38689,0.88297 4.20977,2.79774 3.87266,4.67101c-0.20603,1.14486 -1.05005,1.42219 -1.68758,2.22518c-1.49899,1.88802 -2.71319,3.708 -3.72256,5.89763c0,0 -0.16071,0.3482 -0.50128,0.4317c-1.34548,1.07028 -4.54593,3.41172 -4.85572,4.98779c-0.25863,1.3158 0.18418,3.19323 0.46063,4.48895c0.63796,2.13919 0.12471,5.51331 -1.64697,7.05046c-0.77666,0.67385 -2.19924,0.74909 -2.739,1.65703c-0.74401,1.25152 -1.4937,2.8279 -2.01841,4.19341c0.24369,0.41658 -0.06823,0.79424 -0.13276,0.86533c-1.63374,2.82847 -3.09948,7.08034 -6.18519,8.69445c0.05625,0.05558 0.10628,0.12637 0.14505,0.21633c0.09871,-0.00246 0.1894,-0.00233 0.25117,0.0048c0.61117,0.07052 0.92122,0.05173 1.54151,0.05136c3.89887,0.00271 6.42694,2.05926 9.3823,4.20227c1.43517,1.04068 2.86808,1.69391 3.86272,3.2091c0.19756,0.14756 0.28075,0.3694 0.28075,0.3694l0.14504,0.39852c1.23042,2.4642 1.80916,5.76368 3.72923,7.73392c2.70439,2.20583 4.32475,6.06252 5.69847,9.18241c0.08889,0.20188 0.55465,1.39609 0.75019,2.33465c0.18525,-0.224 0.35614,-0.39939 0.3799,-0.43111c2.29732,-2.87149 3.36926,-7.59762 6.22251,-9.9934c0.96603,-0.81114 2.16764,-0.71711 3.31705,-0.97217c1.63813,-1.97613 1.862,-4.80171 4.41098,-6.12326c3.00356,-1.55724 6.07913,-0.86781 8.68972,-3.43157c2.1406,-4.07748 4.97503,-7.52819 6.73946,-11.79684c-0.17515,-0.33835 0.03017,-0.70793 0.03017,-0.70793l0.27891,-0.50059c1.31741,-2.63404 0.50545,-5.40609 2.09388,-8.00365c1.92569,-3.02323 7.01776,-7.19215 7.49666,-10.95491c-0.32391,-0.31011 -0.15544,-0.78182 -0.15544,-0.78182l0.28111,-0.78363c0.61989,-2.61952 1.12288,-5.75642 2.88428,-7.91124c0.95882,-2.94457 2.79564,-5.46961 3.83299,-8.4182c0.63247,-1.79772 0.48348,-4.20768 0.58574,-6.16681c-0.52429,-0.52911 0.00362,-1.05703 0.00362,-1.05703l0.3114,-0.04897c0.14067,-1.58761 1.32277,-2.61441 0.79708,-4.31497c-0.43489,-1.40684 -1.89484,-2.61621 -2.46057,-4.08776c-0.78556,-2.35507 -3.37922,-4.24406 -3.85498,-6.41047c-0.43669,-1.98852 -0.17966,-4.16257 -1.06036,-6.00654l-0.10951,-0.07402c-3.22613,-0.37781 -3.07111,-2.19469 -5.34061,-3.73207c-2.90868,-1.97036 -6.21587,-2.70325 -8.90229,-5.12101c-1.53773,-1.3986 -3.36897,-2.27125 -5.01096,-3.54842c-2.54698,-1.9811 -3.88144,-4.92407 -5.00947,-7.85621c0,0 -0.01536,-0.03994 -0.0292,-0.1044c-2.25021,-3.61723 -6.00029,-5.74531 -8.76565,-9.02613c-1.1341,-1.92987 -2.66254,-4.25633 -4.07509,-5.94531c-0.65531,-0.78357 -2.17687,-1.08222 -3.01304,-1.62194c-1.24973,-0.80666 -2.24591,-2.10658 -2.91137,-3.41252c0,0 -0.00968,-0.01937 -0.02247,-0.05318c-0.00101,-0.00156 -0.00153,-0.00238 -0.00153,-0.00238l-0.27477,-0.44118c-0.94273,-1.36188 -1.87546,-2.71566 -2.869,-4.04015c-1.03783,-1.43935 -1.55726,-3.14339 -2.63875,-4.57719c-0.97622,-1.29425 -2.62536,-1.91931 -3.50736,-3.2877c-0.89945,-1.39547 -1.10892,-2.8219 -2.62851,-3.69755c0,0 -0.46702,-0.27243 -0.3767,-0.7512l-0.07319,-0.03731c-1.1347,-0.75655 -2.30902,-1.41318 -3.52905,-2.02319c-4.61927,-2.70457 -12.2039,-1.2055 -17.44006,-1.67992c-5.94398,-0.91588 -12.48691,0.09994 -18.49722,0.12319c-3.68628,0 -7.37255,0 -11.05883,0c-1.54483,0 -3.35936,-0.25075 -4.86737,0.1608c0.3301,1.60439 0.22088,3.26776 -0.51376,4.70462c-0.68584,1.34143 -2.53395,1.70202 -3.78899,2.27822c-3.03386,1.92221 -6.34259,2.16095 -9.76553,2.72853c-1.03428,0.1715 -2.06599,0.53876 -3.09822,0.80791c-0.11708,0.55522 -0.73083,0.55522 -0.73083,0.55522c-0.90196,0 -2.03922,0 -2.94118,0c-5.84818,0 -11.92297,0.09007 -17.65962,-1.14186c-5.63876,-1.73688 -10.12207,-2.6299 -11.60058,-9.02773c0,0 -0.00755,-0.03274 -0.01254,-0.08597c-1.50384,0.11845 -3.12721,0.08712 -4.52377,0.46272c-1.00938,0.27147 -1.78254,1.132 -2.96695,0.64644c-0.40172,-0.16469 -0.54882,-0.86475 -0.98288,-0.85469c-1.27642,0.02957 -2.52573,0.66113 -3.7673,0.87148c-2.0543,0.34803 -4.29131,0.12961 -6.36871,0.12961c-5.03949,0 -10.21794,-0.50969 -15.23659,-0.11986c0,0 -0.73405,0.05647 -0.80355,-0.66977c-1.5746,0.03068 -3.01009,0.3783 -4.64156,0.36433c-4.16362,1.74684 -11.79216,1.20441 -14.04228,5.44405c0.0034,0.03425 0.00339,0.05477 0.00339,0.05477v0.58824c0,0.55734 -0.00012,1.11468 -0.00042,1.67202c-0.40926,6.02623 -3.10727,12.45692 -5.25635,18.01855c-1.12183,1.75973 -2.91011,2.6214 -4.38866,4.02987c-2.36911,2.25681 -3.19502,4.60972 -3.6271,7.70131c0.12769,0.32499 -0.06159,0.65624 -0.06159,0.65624l-0.20551,0.35396c-1.03028,2.23165 -1.60636,4.38339 -2.34202,6.73986c-0.48838,0.88268 -0.2749,1.62118 -0.64395,2.52187c-1.55713,3.80025 -6.08508,7.29904 -9.94789,7.63428l-0.05034,0.0695c-1.73632,1.07985 -2.72869,3.20891 -3.76708,4.88308c-2.5361,4.08886 -4.94051,8.32252 -6.84176,12.74983c-1.34189,2.51502 -2.67717,4.79538 -4.82304,6.76378c-1.91033,1.75233 -4.20339,2.48227 -5.77599,4.64699c0,0 -0.18354,0.25238 -0.47664,0.31314l-0.24665,0.24665c-1.30702,1.29934 -2.92453,2.1283 -4.32214,3.26191c-0.8703,0.70591 -0.71274,2.80478 -1.02024,3.77954c-0.31866,1.01018 -0.93099,1.44142 -1.71943,2.0727c-1.06428,0.81615 -1.36298,2.25059 -2.54481,2.99351c-0.57248,0.35987 -1.61731,0.46244 -1.98707,1.10181c-1.228,2.12337 0.27664,5.8204 0.57148,7.98461c0,0 0.01398,0.10484 -0.00794,0.24102c1.37103,1.98951 1.10762,4.04229 0.64897,6.40678c-0.45316,2.33623 0.22138,4.8743 0.81397,7.09387c0.77273,3.34644 2.51686,4.64687 4.46695,7.32808c1.54242,2.1207 2.84657,4.4656 4.59798,6.40999c0.88347,0.98763 1.37178,2.26994 2.27931,3.21932c1.34637,1.40844 3.2135,1.898 4.65044,3.12398c1.16088,0.99045 1.7744,1.80664 2.88036,2.62775c0.3721,-0.02472 0.62983,0.29745 0.62983,0.29745l0.53545,0.68347c0.87185,2.29813 2.81878,4.47702 4.63176,6.1246c4.38363,4.38144 6.9964,9.95677 10.59465,14.89427c2.03445,2.29414 6.87343,3.19482 9.74145,2.18183c0.7606,-0.26864 1.04995,-1.20676 1.83926,-1.47631c1.06628,-0.36414 2.7569,0.2357 3.73321,0.64206c1.49952,1.08041 3.23621,2.06134 4.67531,3.17485c0.92319,0.71433 1.07635,1.99673 1.89277,2.71396c0.78032,0.68552 2.69158,-0.25851 3.34131,-1.08757c-0.07448,-1.40762 -0.21246,-3.02128 0.34661,-4.18864c0.90557,-1.89089 2.60901,-3.03112 3.60364,-4.79389c0.69692,-1.23514 0.92727,-2.60825 1.7095,-3.82996c1.2463,-2.49396 2.92835,-4.57715 4.22211,-7.03464c1.33534,-2.53647 2.729,-5.94003 5.95573,-6.65829c0.84011,-0.39736 1.39425,-0.70374 1.9898,-1.20471c-0.03314,-0.10242 -0.04471,-0.22597 -0.02182,-0.3748c0.11405,-0.74128 0.85532,-0.62723 0.85532,-0.62723c0.38736,0.06081 0.77572,0.0996 1.165,0.12011c-3.19262,-3.55476 -8.33116,-5.74865 -10.94512,-9.62234c-0.55737,-1.44916 -1.66396,-2.56471 -1.67215,-4.22358c-0.01026,-2.07855 0.9357,-3.73161 -0.04561,-5.80039c-1.03616,-2.18441 -2.91864,-4.26619 -4.14803,-6.41634c-1.97661,-3.40667 -5.84668,-4.51428 -8.36629,-7.33058c-0.60447,-0.67564 -0.79687,-1.59896 -1.05741,-2.48077c-1.26175,-0.70113 -3.65416,-1.72152 -2.56562,-3.39209c0.51059,-0.78361 3.6054,-0.75246 4.47391,-1.00507c1.44759,-0.42103 1.04965,-2.01137 2.08664,-2.91074c0.73647,-0.63872 1.78508,-0.76749 2.65684,-1.1411c1.99387,-0.53598 5.97672,-2.5168 7.94453,-2.15048c3.72801,0.694 5.31167,6.23145 5.51958,9.40079l0.00146,0.5762c0,0 0,0.16859 -0.07994,0.34591c0.17955,1.53615 0.89247,2.90336 1.50719,4.34402c0.71992,2.50527 2.14058,5.08969 2.61995,7.59028c0.62549,3.26286 0.13398,6.72414 0.64631,9.99589c0.61408,2.88062 2.01486,5.0582 2.86057,7.79426c0.60359,1.95272 1.08862,4.31407 2.39921,5.93169c0,0 0.06988,0.08736 0.12194,0.22158c3.42406,-0.52549 6.8912,-1.48686 10.33606,-0.44926c2.65964,1.3356 7.48417,8.40968 5.01638,10.56719c1.3367,0.52639 2.80204,1.5786 3.19115,2.30769c1.94464,3.64373 1.50513,7.29818 -1.14996,10.24783c-0.09753,0.12203 -0.19508,0.24406 -0.29261,0.36608c-0.01644,3.19417 -0.94493,5.78525 -3.30434,7.99788c-1.43493,1.29059 -3.04991,2.82587 -3.61043,4.72249c-0.31921,1.08011 -0.19945,2.29092 -0.77795,3.28103c-0.94024,1.60922 -2.7165,1.67092 -4.0003,2.73284c0,0 -0.03828,0.03062 -0.1031,0.06643c-0.81338,1.62745 -1.4922,3.30944 -3.32927,4.04708c-1.34133,0.53859 -3.02375,0.33238 -4.15287,1.41941c-1.0097,0.97206 -0.74265,3.06241 -1.58231,4.24874c-2.04978,5.02135 0.74296,8.69742 1.18621,13.49804c0.02754,0.11063 0.02754,0.19348 0.02754,0.19348v0.29412c0,4.58793 0.49984,9.49827 -0.53804,13.99575c-0.20386,2.37475 -1.59669,4.70139 -2.00594,6.91604c-0.37537,2.0313 0.98102,4.34523 0.60198,6.26579c6.45937,0.67789 13.1966,0.64175 19.7067,0.64175zM258.72057,86.99889c0.83317,0.25817 1.58406,0.60605 2.37498,0.97125c3.89268,1.6321 8.04099,4.15973 11.301,6.93802c1.45164,1.23713 1.92831,2.32155 3.75907,3.23899c1.77368,0.68374 3.10164,2.56311 5.02088,2.89196c3.15151,0.54 7.76838,-2.52126 9.04094,-5.31283c0.54455,-1.52802 1.46447,-3.23143 1.71762,-4.82959c0.50246,-3.17216 -0.54493,-6.64337 -1.00104,-9.72197c0,0 -0.04168,-0.29175 0.11011,-0.53561v-0.04104c0.00137,-2.46895 -1.00705,-4.66165 -1.72646,-6.99883c-1.11219,-3.12842 -2.23929,-6.17083 -3.77676,-9.12492c-0.65269,-1.25409 -1.02819,-2.5806 -2.12304,-3.42061c-0.39925,-0.00845 -0.57916,-0.23394 -0.66021,-0.43543c-0.17025,-0.15232 -0.39342,-0.45927 -0.1533,-0.9052c0.02558,-0.0475 0.05273,-0.08975 0.0811,-0.12724c-0.14108,-4.61096 -2.7276,-9.09319 -5.08103,-12.92618c-0.96573,-2.06314 -2.10778,-3.9793 -3.12763,-6.0192c-0.49111,-0.9823 -0.98614,-2.69096 -1.86818,-3.40697c-0.98332,-0.79823 -2.16134,-0.89571 -3.12856,-1.66755l-0.56699,-0.04361l0.00294,-0.03821l-0.10168,0.02396c-2.51832,-0.90029 -5.31162,-0.49737 -7.89612,-1.10947c-5.2512,-0.33606 -9.45682,-0.30333 -13.06676,3.53633c0.01173,0.17683 -0.04541,0.3815 -0.26493,0.57663c-0.56055,0.49827 -1.05883,-0.06228 -1.05883,-0.06228l-0.44037,-0.49736c-0.99495,-0.99784 -2.01631,-1.7675 -2.78564,-2.97645c-0.38978,-0.48723 -0.85142,-0.87984 -1.37003,-1.19284c-0.0487,-0.02083 -0.09789,-0.04894 -0.147,-0.08575c-3.88438,-2.18943 -10.76437,-0.16558 -14.75858,0.11972c-4.4159,0.33731 -10.04663,-0.01799 -14.08091,2.18668c-0.03242,0.20233 -0.16289,0.61252 -0.68783,0.63768c-0.10043,0.14605 -0.22366,0.22819 -0.22366,0.22819l-0.18331,0.07978c-0.30912,0.3852 -0.59503,0.78974 -0.86032,1.20634c-0.73487,0.86725 -0.40681,2.41832 -1.27732,3.10309c-1.68196,1.3231 -5.20758,-1.01177 -6.91248,-1.27159c-2.27309,-0.34641 -4.60134,0.52694 -6.77955,0.87169c-5.05912,1.57104 -8.43714,2.50331 -10.66144,7.41173c0.03163,0.21623 -0.0353,0.40365 -0.0353,0.40365l-0.28549,0.79791c-1.56751,5.65146 -4.33851,11.12321 -5.09019,16.93877c-0.38074,2.47561 -1.56502,4.64993 -2.00418,7.08469c-0.4373,2.42446 -0.08933,5.25059 -1.25433,7.45841c0,0 -0.04943,0.0918 -0.14565,0.18851v0.16181c-0.00689,1.63875 0.14816,3.32969 0.23504,4.98028c0.00112,3.64698 -0.12318,7.3543 0.51821,10.94795c0.38762,2.17179 1.40636,4.36511 1.5879,6.52756c1.35491,4.65621 2.94341,8.83088 8.326,8.44319c0,0 0.21398,-0.01529 0.42124,0.08494c0.54145,-0.14999 0.93383,-0.40691 1.49301,-0.75137c5.00219,-2.68925 8.39323,-7.68935 12.18042,-11.85113c2.06928,-3.58808 6.64773,-11.69284 11.76334,-9.69075l0.58953,-0.0838c2.7737,-0.16999 5.51736,-0.2392 8.31178,-0.2392c2.19538,0.00114 4.24327,-0.91177 6.42895,-1.22853c4.12072,-0.59719 8.39446,-0.61884 12.56553,-1.17305c3.21062,-0.63861 6.50114,-0.29497 9.70844,-0.82395c1.61639,-0.26659 3.59956,-0.86794 5.21476,-0.83246c1.54899,0.03402 2.29887,0.3615 2.57897,1.37489zM261.14062,32.91519c2.15191,0.50315 4.44586,0.32474 6.61121,0.75303c-0.85328,-0.58396 -1.90972,-1.28218 -2.45377,-1.48458c-3.37195,-1.25443 -7.0748,-1.91655 -10.57107,-2.72857c-4.51624,-0.49688 -7.83964,0.86013 -11.29862,3.56329c0.39532,0.31016 0.76145,0.66963 1.09348,1.08467c0.67479,1.06038 1.55349,1.74895 2.43336,2.59913c3.92991,-4.02584 8.55363,-4.17478 14.18541,-3.78697zM208.02941,34.34807c-3.18263,0.00237 -6.09457,0.36984 -9.16678,1.19416c-2.6959,1.16217 -4.67739,2.38671 -7.0726,3.92066c-1.86315,1.1932 -2.97952,0.97213 -3.2437,2.78419c1.95313,-1.24122 4.30621,-1.98615 7.13886,-2.85059c2.64508,-0.39411 5.533,-1.5076 8.22775,-0.62781c0.79868,0.26076 4.15381,1.83367 4.90375,1.28674c0.22577,-0.16466 0.55599,-2.27412 0.95798,-2.77926c0.27804,-0.43722 0.58127,-0.8592 0.90439,-1.26425l0.52256,-0.39081c0,0 0.07091,-0.04727 0.18084,-0.08604c0.00453,-0.06292 0.01843,-0.1212 0.03842,-0.17461c-0.31945,-1.09767 -2.51085,-1.01303 -3.39147,-1.01237zM257.22891,102.94675c2.46974,-3.57085 -0.1157,-10.68824 -0.12597,-14.70162c0.00519,-1.95681 -1.94789,-0.83833 -3.55633,-0.72204c-4.00652,0.28966 -8.38929,0.43286 -12.3352,1.22657c-4.17957,0.55911 -8.48724,0.56377 -12.61095,1.1799c-2.25931,0.33756 -4.34725,1.24092 -6.62987,1.24205c-0.53431,0 -1.06674,0.00221 -1.59785,0.00704l-0.14309,0.22544c-0.86673,1.67673 0.04623,3.24102 0.36093,4.9407c0.29355,1.5855 0.13002,3.29076 0.13002,4.90036c0,4.88383 -0.05882,9.76219 -0.05882,14.64706c0,0 0,0.00811 -0.00084,0.02263c0.11929,0.27316 0.02118,0.56748 0.02118,0.56748l-0.08643,0.21995c-0.14945,1.06218 0.02585,2.3539 -0.24809,3.36226c-0.71999,2.6503 -4.43458,2.85634 -6.75173,3.24061c1.34062,5.71451 5.4224,6.2991 10.50494,7.86129c5.6098,1.19915 11.5638,1.09343 17.28155,1.09343c0.3596,0 0.71921,0 1.07881,0c0.22197,-0.2353 0.56825,-0.2353 0.56825,-0.2353c1.56047,0.03391 3.30087,-0.84351 4.87683,-1.10746c3.26582,-0.54697 6.40068,-0.71634 9.2933,-2.56558c2.301,-1.0668 4.59964,-2.16213 3.52757,-5.34759c-0.34911,-1.0373 -0.53404,-2.57269 -1.38888,-3.33092c-0.2804,-0.24871 -1.95581,-2.13049 -2.27448,-1.48944c-0.00914,0.02465 -0.01833,0.04926 -0.02758,0.07386c-0.01554,0.0567 -0.02409,0.12626 -0.02472,0.21006l0.06041,0.00402l-0.05844,0.87654c-0.02282,0.39369 -0.34931,0.70592 -0.74873,0.70592c-0.41422,0 -0.75,-0.33579 -0.75,-0.75v-0.76471h0.01407l-0.01351,-0.02878c0.02468,-0.18645 0.06111,-0.36081 0.10823,-0.52259c-0.22382,-0.73404 0.35974,-1.97195 0.48807,-2.79733c0.6125,-3.93918 1.03167,-7.45195 1.0496,-11.49847c-0.18592,-0.36484 0.06774,-0.74533 0.06774,-0.74533zM305.44118,256.05395c-1.28427,0 -2.56887,0.01087 -3.85291,-0.01456c-1.67707,0.7335 -4.11196,1.15033 -5.61393,2.06541c-1.58359,0.96481 -2.38831,4.69988 -1.62887,6.27893c0.01765,0.0367 0.03846,0.06905 0.0621,0.09749c0.0035,-0.00079 0.007,-0.0016 0.01051,-0.00239l-0.02098,-0.06819l0.748,-0.23015c0.07457,-0.02485 0.15435,-0.0383 0.23727,-0.0383c0.41422,0 0.75,0.33578 0.75,0.75c0,0.31811 -0.19806,0.58997 -0.47759,0.69899l-0.68984,0.28744l-0.01193,-0.02864l-0.04717,0.0504c-0.10462,0.02447 -0.20576,0.04658 -0.30349,0.06716c-0.06549,0.20418 -0.20738,0.29158 -0.53222,0.1087c-0.88147,0.18441 -1.40957,0.37741 -1.66285,1.51402c0,0 -0.12388,0.5368 -0.61936,0.58409c-2.30143,3.25279 -0.30649,6.50019 0.96358,9.57394c0.1862,1.1821 -0.45826,4.30813 0.28882,5.22218c0.58945,0.72118 2.51028,2.80338 3.22262,3.23489c0.68061,0.41228 1.61304,0.41995 2.17551,0.98283c0.9835,0.98422 1.29604,3.47869 1.38334,4.78303c0.25315,0.69033 0.94799,2.70867 1.5588,3.05766c0.46652,0.26655 1.12259,0.10803 1.55389,0.42844c1.1401,0.84698 2.07639,2.41777 3.11151,3.39403c1.30779,1.23344 4.96755,0.51702 6.59188,0.53249c2.60967,-0.71704 3.19012,-2.13416 5.2248,-3.73039c2.03924,-1.59982 3.52104,-2.64181 5.0222,-4.44261c0.08003,-0.44324 0.22217,-0.86232 0.44776,-1.24236c0.61419,-1.03471 1.92016,-1.51646 2.83407,-2.20497c1.75128,-1.31935 2.86367,-2.84442 4.83691,-3.89903c-0.20344,-0.90551 -0.29473,-2.14189 -0.44201,-2.53487c-1.19918,-3.19986 -3.02399,-7.23075 -5.69691,-9.42416c-1.99289,-2.30984 -2.67025,-5.42196 -4.03548,-8.14844l-0.1533,-0.40015c-0.10465,-0.09022 -0.16156,-0.17965 -0.16156,-0.17965c-0.85825,-1.36037 -2.23984,-1.92558 -3.51427,-2.85493c-2.68003,-1.95436 -4.94329,-3.91805 -8.50005,-3.91537c-0.75729,-0.00043 -2.11282,0.08527 -2.99121,-0.3651zM326.74352,215.4167c0.38145,-0.47367 1.65744,-1.12512 1.34165,-1.92684c-0.37953,-0.96355 -2.40003,-2.26798 -3.27422,-2.82403c-2.37518,-2.13022 -5.33524,-3.5753 -7.92955,-5.46193c-0.70905,-0.51564 -2.11341,-1.80521 -3.13977,-1.48405c-0.69522,0.21754 -0.67118,1.54852 -0.6681,2.0547c0,5.92953 0.05209,12.1676 -1.19312,17.98068c-1.13159,5.21747 2.95371,9.41643 4.11019,14.26533c1.59468,-1.31216 2.70983,-2.7522 1.84244,-5.46874c-0.31038,-1.44264 -0.83706,-3.68578 -0.48055,-5.15812c0.50297,-2.07715 3.79061,-4.58818 5.44369,-5.91069l-0.08465,0.01494c0,0 0.11306,-0.22612 0.33918,-0.35016c1.01441,-2.08813 2.21958,-3.90167 3.69281,-5.7311zM162.85337,295.37974c-0.02776,0.07274 -0.0601,0.14543 -0.09672,0.21785c0.00649,0.10023 0.01193,0.19746 0.01587,0.29104c2.81861,2.80291 7.88646,4.52062 9.70181,7.87772c3.37382,4.0888 6.01777,6.20125 11.29053,7.69883c0,0 0.03551,0.01014 0.08852,0.03381c0.8622,-0.22496 1.77066,-0.32484 2.61048,-0.65888c1.43251,-0.5698 1.91357,-2.08398 2.5418,-3.34213l0.43461,-0.48904c0,0 0.01078,-0.01078 0.03082,-0.02774c0.01907,-0.01804 0.03098,-0.02758 0.03098,-0.02758c1.11169,-0.86816 2.86314,-1.02547 3.64676,-2.32599c0.48286,-0.80136 0.36696,-2.05561 0.63381,-2.95425c0.64432,-2.16976 2.39318,-3.91513 4.03663,-5.39516c2.05043,-1.82286 2.75427,-3.99057 2.80951,-6.62673c-0.34512,-0.48593 0.1056,-0.93666 0.1056,-0.93666l0.06232,-0.05584c0.16148,-0.20168 0.32296,-0.40336 0.48444,-0.60504c2.02733,-2.2529 3.32093,-7.23712 0.14942,-9.42433c-1.38477,-0.955 -2.37724,-0.83898 -3.30993,-1.53633c-0.00939,-0.00016 -0.0188,-0.00034 -0.02823,-0.00054l0.00267,-0.01878c-0.04422,-0.03381 -0.0883,-0.0695 -0.13231,-0.10725l-0.03346,0.06691l-0.09076,-0.04537l-0.10759,0.13149l-0.6422,-0.52544c-0.1707,-0.13747 -0.27992,-0.3482 -0.27992,-0.58444c0,-0.41422 0.33578,-0.75 0.75,-0.75c0.12597,0 0.24468,0.03106 0.3489,0.08593l0.57104,0.28552c1.93145,-0.07905 1.2041,-1.02216 0.5603,-2.63668c-0.9294,-2.33076 -1.88554,-4.53551 -4.22977,-5.70033c-4.63457,-1.47296 -9.51668,1.05791 -14.15002,0.79277c-0.98875,0.97185 -1.81608,1.45472 -3.09708,2.04557c-2.88306,0.59103 -3.94326,3.69037 -5.1031,5.92995c-1.28551,2.48224 -2.99418,4.57561 -4.24848,7.08301c-0.78404,1.21448 -1.00993,2.57307 -1.70226,3.81709c-0.98488,1.76971 -2.60099,2.90963 -3.57283,4.73552c-0.3742,0.70305 -0.33435,1.835 -0.25654,2.88229c0.34929,0.30951 0.17437,0.79926 0.17437,0.79926zM169.21222,221.63388c-0.57992,-0.12082 -1.71161,0.55919 -2.23975,0.73452c-1.63212,0.54184 -3.3223,0.90895 -4.99219,1.35029c-0.67222,0.28809 -1.5947,0.39195 -2.1667,0.8589c-0.89691,0.73218 -0.58238,2.07352 -1.73631,2.83087c-0.87738,0.57584 -3.61445,1.26525 -4.64432,0.90039c-0.40905,-0.14491 0.81947,0.30653 1.18297,0.54358c0.11612,0.07573 0.23383,0.14889 0.35237,0.22077c0.44188,-0.21386 0.82675,0.17101 0.82675,0.17101l0.2285,0.31992c0.02967,0.07717 0.05764,0.15448 0.0842,0.23189c0.12471,0.13034 0.27276,0.35738 0.19746,0.65562c0.12395,0.45945 0.22687,0.91615 0.36919,1.35789c0.35733,1.10904 2.43479,2.10079 3.34143,2.68238c2.13714,1.37092 4.25164,3.11176 5.54545,5.31939c1.25849,2.20371 3.1173,4.28878 4.2049,6.52484c1.1075,2.27694 0.20571,4.14835 0.18969,6.4349c-0.00938,1.33796 1.05076,2.36186 1.50432,3.54113c1.18301,1.80743 3.40301,2.83387 5.12644,4.08999c2.06145,1.5025 4.47579,3.82629 6.08207,5.77981c0,0 0.14759,0.18039 0.17766,0.42232c0.17472,-0.01175 0.34959,-0.02601 0.5246,-0.04246c-1.1608,-1.73705 -1.693,-3.95755 -2.29269,-5.91647c-0.84783,-2.76952 -2.27552,-5.04994 -2.90413,-7.97045c-0.49768,-3.28267 -0.05094,-6.73117 -0.6478,-10.00411c-0.43847,-2.40438 -1.86998,-4.93192 -2.55653,-7.35089c-0.75606,-1.75564 -1.53005,-3.35016 -1.6308,-5.27602l-0.00078,-0.56347c0,0 0,-0.16483 0.07727,-0.33995c-0.26565,-2.53375 -1.49929,-6.94323 -4.20329,-7.5066z" fill="#000000" stroke="none" stroke-width="0.5"/><path d="M246.9092,36.72173c-0.87986,-0.85018 -1.76232,-1.55349 -2.43711,-2.61387c-0.33203,-0.41504 -0.6984,-0.77939 -1.09372,-1.08955c3.45899,-2.70316 6.82065,-4.10873 11.33689,-3.61185c3.49626,0.81201 7.26066,1.5184 10.63261,2.77283c0.54405,0.2024 1.60061,0.90759 2.45389,1.49155c-2.16535,-0.42829 -4.55922,-0.25149 -6.71113,-0.75464c-5.63179,-0.38781 -10.25152,-0.22031 -14.18143,3.80553z" data-paper-data="{&quot;noHover&quot;:false,&quot;origItem&quot;:[&quot;Path&quot;,{&quot;applyMatrix&quot;:true,&quot;segments&quot;:[[[522.28124,65.83037],[-11.26357,-0.77562],[4.30382,1.00631]],[[535.50366,67.33643],[-4.3307,-0.85657],[-1.70656,-1.16791]],[[530.59612,64.36727],[1.0881,0.40479],[-6.7439,-2.50886]],[[509.45399,58.91014],[6.99253,1.62403],[-9.03248,-0.99377]],[[486.85674,66.03671],[6.91797,-5.40632],[0.79064,0.62031]],[[489.04371,68.20605],[-0.66407,-0.83008],[1.34958,2.12076]],[[493.91042,73.40431],[-1.75972,-1.70036],[7.85982,-8.05168]]],&quot;closed&quot;:true}]}" fill="#f8f8f8" stroke="none" stroke-width="0.5"/><path d="M211.46931,35.34801c-0.01999,0.05342 -0.03373,0.11234 -0.03826,0.17527c-0.10994,0.03877 -0.1808,0.08621 -0.1808,0.08621l-0.52231,0.39197c-0.32312,0.40505 -0.62551,0.83228 -0.90355,1.2695c-0.40199,0.50514 -0.7329,2.62956 -0.95867,2.79421c-0.74994,0.54693 -4.20376,-1.04171 -5.00243,-1.30247c-2.69475,-0.8798 -5.58146,0.25206 -8.22654,0.64617c-2.83265,0.86444 -5.18455,1.61329 -7.13768,2.85451c0.26418,-1.81206 1.37832,-1.60026 3.24147,-2.79347c2.39521,-1.53395 4.40735,-2.81185 7.10325,-3.97402c3.07222,-0.82432 6.04789,-1.1675 9.23051,-1.16987c0.88062,-0.00066 3.07557,-0.0757 3.39502,1.02197z" data-paper-data="{&quot;noHover&quot;:false,&quot;origItem&quot;:[&quot;Path&quot;,{&quot;applyMatrix&quot;:true,&quot;segments&quot;:[[[416.05882,68.69614],[1.76124,-0.00131],[-6.36525,0.00474]],[[397.72526,71.08445],[6.14443,-1.64864],[-5.3918,2.32433]],[[383.58007,78.92577],[4.79041,-3.0679],[-3.7263,2.38641]],[[377.09266,84.49414],[0.52837,-3.62411],[3.90626,-2.48245]],[[391.37038,78.79297],[-5.6653,1.72887],[5.29016,-0.78822]],[[407.82588,77.53735],[-5.3895,-1.75959],[1.59735,0.52151]],[[417.63338,80.11082],[-1.49988,1.09386],[0.45155,-0.32931]],[[419.54934,74.5523],[-0.80398,1.01028],[0.55609,-0.87444]],[[421.35811,72.02381],[-0.64624,0.81009],[0,0]],[422.40324,71.24218],[[422.76492,71.07011],[-0.21987,0.07754],[0.00906,-0.12585]],[[422.84176,70.72089],[-0.03999,0.10683],[-0.63889,-2.19534]]],&quot;closed&quot;:true}]}" fill="#f8f8f8" stroke="none" stroke-width="0.5"/><path d="M258.42436,86.96277c-0.2801,-1.01339 -0.94438,-1.28915 -2.49337,-1.32318c-1.61521,-0.03548 -3.60305,0.57233 -5.21944,0.83892c-3.2073,0.52898 -6.51533,0.19849 -9.72595,0.8371c-4.17106,0.55421 -8.4827,0.57716 -12.60342,1.17435c-2.18569,0.31676 -4.24537,1.2234 -6.44075,1.22226c-2.79442,0 -5.54713,0.06085 -8.32083,0.23083l-0.5899,0.08337c-5.11561,-2.00209 -9.61689,6.03906 -11.68617,9.62714c-3.78719,4.16178 -7.25464,9.22638 -12.25683,11.91563c-0.55918,0.34446 -0.95177,0.60113 -1.49322,0.75112c-0.20726,-0.10022 -0.42142,-0.08514 -0.42142,-0.08514c-5.38259,0.3877 -6.97642,-3.79464 -8.33132,-8.45085c-0.18154,-2.16245 -1.20261,-4.36043 -1.59023,-6.53222c-0.64139,-3.59365 -0.51985,-7.30921 -0.52096,-10.95619c-0.08687,-1.65059 -0.24274,-3.34565 -0.23585,-4.9844l-0.00002,-0.16194c0.09622,-0.09671 0.14562,-0.18865 0.14562,-0.18865c1.165,-2.20782 0.81651,-5.04032 1.25381,-7.46479c0.43916,-2.43476 1.62374,-4.61553 2.00448,-7.09114c0.75169,-5.81556 3.52707,-11.30292 5.09458,-16.95438l0.28582,-0.79862c0,0 0.06708,-0.18772 0.03545,-0.40395c2.2243,-4.90842 5.60859,-5.85035 10.66771,-7.4214c2.17821,-0.34475 4.51021,-1.22216 6.7833,-0.87575c1.70489,0.25982 5.23438,2.5913 6.91634,1.26821c0.87051,-0.68477 0.54529,-2.23792 1.28016,-3.10517c0.26529,-0.4166 0.55258,-0.82205 0.86171,-1.20725l0.18351,-0.0799c0,0 0.12354,-0.08234 0.22397,-0.22839c0.52494,-0.02517 0.65635,-0.43591 0.68877,-0.63824c4.03428,-2.20468 9.68102,-1.85536 14.09691,-2.19267c3.99421,-0.2853 10.89291,-2.30911 14.77729,-0.11968c0.0491,0.03681 0.0985,0.06496 0.1472,0.08579c0.51861,0.313 0.98224,0.70604 1.37203,1.19327c0.76933,1.20895 1.79517,1.97991 2.79012,2.97775l0.44112,0.49762c0,0 0.49958,0.56105 1.06014,0.06278c0.21952,-0.19513 0.2767,-0.39979 0.26498,-0.57662c3.60994,-3.83966 7.82594,-3.86683 13.07715,-3.53077c2.5845,0.6121 5.38327,0.21361 7.90159,1.11391l0.10173,-0.02392l-0.00293,0.03823l0.56731,0.0439c0.96722,0.77184 2.14754,0.87166 3.13086,1.66989c0.88203,0.71601 1.37946,2.42746 1.87056,3.40977c1.01986,2.0399 2.16567,3.96151 3.13139,6.02465c2.35343,3.83299 4.94533,8.32796 5.0864,12.93892c-0.02837,0.03749 -0.0555,0.07984 -0.08107,0.12734c-0.24012,0.44593 -0.01672,0.75377 0.15353,0.90609c0.08106,0.20148 0.26109,0.42753 0.66035,0.43598c1.09485,0.84001 1.47105,2.17014 2.12374,3.42423c1.53747,2.95409 2.66517,6.00524 3.77736,9.13366c0.71941,2.33718 1.72733,4.53594 1.72596,7.00489l0,0.04108c-0.15179,0.24386 -0.11018,0.53608 -0.11018,0.53608c0.45611,3.0786 1.50171,6.55744 0.99926,9.7296c-0.25315,1.59816 -1.17453,3.30554 -1.71908,4.83356c-1.27256,2.79157 -5.8929,5.85964 -9.0444,5.31965c-1.91924,-0.32885 -3.33253,-2.26036 -5.10621,-2.9441c-1.83076,-0.91744 -2.3079,-2.00108 -3.75954,-3.23821c-3.26,-2.77829 -7.32193,-5.25555 -11.21461,-6.88765c-0.79092,-0.36519 -1.54212,-0.71255 -2.37529,-0.97072z" data-paper-data="{&quot;noHover&quot;:false,&quot;origItem&quot;:[&quot;Path&quot;,{&quot;applyMatrix&quot;:true,&quot;segments&quot;:[[[517.44113,173.99777],[0,0],[1.66635,0.51633]],[[522.1911,175.94027],[-1.58184,-0.73039],[7.78536,3.26421]],[[544.79309,189.81632],[-6.52001,-5.55658],[2.90328,2.47427]],[[552.31123,196.2943],[-3.66151,-1.83488],[3.54736,1.36748]],[[562.353,202.07821],[-3.83848,-0.6577],[6.30302,1.07999]],[[580.43487,191.45256],[-2.54511,5.58313],[1.08909,-3.05604]],[[583.87011,181.79338],[-0.50629,3.19631],[1.00492,-6.34432]],[[581.86802,162.34945],[0.91222,6.1572],[0,0]],[[582.08824,161.27822],[-0.30358,0.48772],[0,0]],[[582.08824,161.19614],[0,0],[0.00275,-4.93789]],[[578.63533,147.19849],[1.43882,4.67436],[-2.22437,-6.25685]],[[571.0818,128.94865],[3.07494,5.90819],[-1.30539,-2.50818]],[[566.83573,122.10742],[2.1897,1.68002],[-0.79851,-0.0169]],[[565.5153,121.23657],[0.16212,0.40297],[-0.34049,-0.30463]],[[565.20871,119.42617],[-0.48024,0.89187],[0.05115,-0.095]],[[565.37091,119.17169],[-0.05674,0.07499],[-0.28215,-9.22192]],[[555.20885,93.31932],[4.70687,7.66598],[-1.93145,-4.12628]],[[548.95358,81.28092],[2.03972,4.07981],[-0.98221,-1.9646]],[[545.21723,74.46698],[1.76407,1.43202],[-1.96664,-1.59646]],[[538.96011,71.13189],[1.93445,1.54367],[0,0]],[537.82613,71.04467],[537.83201,70.96825],[[537.62864,71.01616],[0,0],[-5.03664,-1.80059]],[[521.8364,68.79721],[5.16901,1.22421],[-10.50241,-0.67212]],[[495.70288,75.86987],[7.21988,-7.67931],[0.02345,0.35365]],[[495.17302,77.02314],[0.43904,-0.39026],[-1.12111,0.99655]],[493.05536,76.89857],[[492.17463,75.90386],[0,0],[-1.9899,-1.99568]],[[486.60335,69.95095],[1.53866,2.4179],[-0.77957,-0.97447]],[[483.86329,67.56527],[1.03722,0.62601],[-0.09739,-0.04167]],[[483.56929,67.39377],[0.09821,0.07363],[-7.76876,-4.37886]],[[454.05213,67.63321],[7.98843,-0.5706],[-8.83179,0.67463]],[[425.89032,72.00658],[8.06856,-4.40935],[-0.06485,0.40467]],[[424.51465,73.28195],[1.04988,-0.05033],[-0.20086,0.29209]],[424.06734,73.73834],[[423.70071,73.89789],[0,0],[-0.61825,0.77039]],[[421.98007,76.31058],[0.53058,-0.8332],[-1.46974,1.7345]],[[419.42544,82.51676],[1.74101,-1.36954],[-3.36393,2.64619]],[[405.60049,79.97358],[3.40978,0.51964],[-4.54617,-0.69282]],[[392.04138,81.71696],[4.35642,-0.68949],[-10.11824,3.14209]],[[370.71851,96.54042],[4.44859,-9.81684],[0.06326,0.43246]],[370.64791,97.34771],[[370.07693,98.94354],[0,0],[-3.13502,11.30292]],[[359.89654,132.82108],[1.50337,-11.63112],[-0.76148,4.95121]],[[355.88819,146.99046],[0.87832,-4.86953],[-0.8746,4.84893]],[[353.37953,161.90729],[2.33,-4.41564],[0,0]],[[353.08824,162.2843],[0.19244,-0.19342],[0,0]],[[353.08824,162.60791],[0,0],[-0.01379,3.27749]],[[353.55831,172.56847],[-0.17375,-3.30118],[0.00224,7.29396]],[[354.59473,194.46436],[-1.28279,-7.1873],[0.77524,4.34358]],[[357.77054,207.51947],[-0.36308,-4.32489],[2.70981,9.31242]],[[374.42254,224.40584],[-10.76518,0.7754],[0,0]],[[375.26502,224.57572],[-0.41451,-0.20045],[1.0829,-0.29997]],[[378.25104,223.07297],[-1.11835,0.68893],[10.00438,-5.3785]],[[402.61188,199.37071],[-7.57439,8.32357],[4.13856,-7.17616]],[[426.13855,179.98922],[-10.23122,-4.00418],[0,0]],[[427.31762,179.82161],[0,0],[5.5474,-0.33998]],[[443.94118,179.3432],[-5.58884,0],[4.39075,0.00229]],[[456.79908,176.88613],[-4.37137,0.63352],[8.24145,-1.19438]],[[481.93013,174.54004],[-8.34213,1.10842],[6.42125,-1.27722]],[[501.34702,172.89213],[-6.4146,1.05796],[3.23277,-0.53318]],[[511.77654,171.22722],[-3.23041,-0.07096],[3.09798,0.06805]],[[516.93447,173.97699],[-0.5602,-2.02678],[0,0]]],&quot;closed&quot;:true}]}" fill="#f8f8f8" stroke="none" stroke-width="0.5"/><path d="M257.20903,103.67765c-0.01793,4.04652 -0.43699,7.58778 -1.04948,11.52696c-0.12833,0.82538 -0.71434,2.06988 -0.49052,2.80392c-0.04712,0.16178 -0.08409,0.33731 -0.10877,0.52375l0.01349,0.02883l-0.01407,0.00002l-0.00075,0.76619c0,0.41421 0.2477,0.70266 0.66192,0.70266c0.39941,0 0.72488,-0.31025 0.7477,-0.70394l0.05765,-0.87485l-0.06039,-0.00407c0.00063,-0.08379 0.00898,-0.15292 0.02452,-0.20962c0.00925,-0.0246 0.01836,-0.04905 0.0275,-0.0737c0.31867,-0.64105 2.08555,1.28113 2.36595,1.52984c0.85484,0.75823 1.0377,2.29769 1.3868,3.33499c1.07207,3.18546 -1.23358,4.29028 -3.53457,5.35708c-2.89263,1.84924 -6.0416,2.02914 -9.30742,2.57611c-1.57596,0.26395 -3.32628,1.14506 -4.88675,1.11116c0,0 -0.34755,0.00031 -0.56952,0.2356c-0.3596,0 -0.72145,0.00046 -1.08105,0.00046c-5.71776,0 -11.70682,0.09913 -17.31662,-1.10002c-5.08254,-1.56218 -9.1815,-2.16447 -10.52212,-7.87898c2.31715,-0.38428 6.03245,-0.58911 6.75244,-3.23941c0.27393,-1.00835 0.09518,-2.30682 0.24463,-3.36901l0.08625,-0.22038c0,0 0.09757,-0.29572 -0.02173,-0.56888c0.00084,-0.01452 0.00082,-0.02268 0.00082,-0.02268c0,-4.88487 0.0611,-9.8034 0.0611,-14.68723c0,-1.6096 0.16902,-3.32337 -0.12454,-4.90887c-0.3147,-1.69968 -1.2227,-3.26932 -0.35598,-4.94605l0.14348,-0.22579c0.53111,-0.00483 1.06539,-0.00865 1.59971,-0.00865c2.28262,-0.00113 4.3823,-0.91173 6.64161,-1.2493c4.12371,-0.61612 8.46071,-0.62417 12.64029,-1.18328c3.94591,-0.79371 8.34906,-0.92808 12.35558,-1.21774c1.60844,-0.11629 3.56589,-1.23117 3.56069,0.72563c0.01027,4.01338 2.60915,11.15149 0.13941,14.72234c0,0 -0.25316,0.38206 -0.06724,0.7469z" data-paper-data="{&quot;noHover&quot;:false,&quot;origItem&quot;:[&quot;Path&quot;,{&quot;applyMatrix&quot;:true,&quot;segments&quot;:[[[514.45781,205.8935],[0,0],[4.93948,-7.14169]],[[514.20588,176.49026],[0.02053,8.02676],[0.01038,-3.91361]],[[507.09321,175.04618],[3.21688,-0.23257],[-8.01304,0.57932]],[[482.42281,177.49931],[7.89182,-1.58742],[-8.35914,1.11822]],[[457.20092,179.8591],[8.24742,-1.23225],[-4.51862,0.67513]],[[443.94118,182.3432],[4.56525,-0.00225],[-1.06863,0]],[[440.74548,182.35727],[1.06222,-0.00966],[0,0]],[[440.45929,182.80814],[0,0],[-1.73346,3.35345]],[[441.18114,192.68954],[-0.62939,-3.39936],[0.58711,3.17101]],[[441.44118,202.49026],[0,-3.2192],[0,9.76766]],[[441.32353,231.78438],[0,-9.76975],[0,0]],[[441.32184,231.82963],[0.00168,-0.02904],[0.23858,0.54631]],[441.3642,232.9646],[[441.19134,233.40449],[0,0],[-0.2989,2.12437]],[[440.69517,240.12901],[0.54786,-2.01671],[-1.43997,5.30059]],[[427.19172,246.61023],[4.63429,-0.76855],[2.68123,11.42902]],[[448.2016,262.33281],[-10.16507,-3.12437],[11.2196,2.3983]],[[482.76471,264.51967],[-11.43551,0],[0.7192,0]],[[484.92232,264.51967],[-0.7192,0],[0.44394,-0.47059]],[[486.05882,264.04908],[0,0],[3.12094,0.06781]],[[495.81248,261.83416],[-3.15192,0.52789],[6.53163,-1.09393]],[[514.39908,256.70299],[-5.78525,3.69848],[4.60199,-2.1336]],[[521.45422,246.00781],[2.14415,6.37093],[-0.69821,-2.0746]],[[518.67646,239.34597],[1.70968,1.51647],[-0.5608,-0.49742]],[[514.1275,236.36709],[0.63733,-1.28209],[-0.01828,0.04929]],[[514.07235,236.51482],[0.01849,-0.0492],[-0.03108,0.11341]],[[514.02292,236.93493],[0.00126,-0.16759],[0,0]],[514.14374,236.94298],[[514.02686,238.69607],[0,0],[-0.04564,0.78739]],[[512.52941,240.10791],[0.79883,0],[-0.82843,0]],[[511.02941,238.60791],[0,0.82843],[0,0]],[511.02941,237.0785],[511.05754,237.0785],[[511.03052,237.02093],[0,0],[0.04936,-0.37289]],[[511.24698,235.97575],[-0.09424,0.32356],[-0.44764,-1.46807]],[[512.22313,230.3811],[-0.25667,1.65076],[1.22499,-7.87835]],[[514.32233,207.38416],[-0.03586,8.09304],[-0.37184,-0.72968]]],&quot;closed&quot;:true}]}" fill="#f7f7f7" stroke="none" stroke-width="0.5"/><path d="M305.49683,255.99325c0.8784,0.45038 2.24037,0.36353 2.99767,0.36395c3.55676,-0.00267 5.84207,1.96353 8.52209,3.91789c1.27443,0.92935 2.66699,1.5 3.52524,2.86037c0,0 0.05747,0.08981 0.16212,0.18003l0.15414,0.40073c1.36522,2.72647 2.05974,5.85996 4.05263,8.16979c2.67292,2.19341 4.50088,6.25252 5.70006,9.45238c0.14728,0.39299 0.23723,1.63496 0.44067,2.54048c-1.97323,1.05462 -3.0916,2.59255 -4.84287,3.9119c-0.9139,0.68851 -2.226,1.17791 -2.84019,2.21262c-0.22559,0.38004 -0.37013,0.80144 -0.45016,1.24467c-1.50116,1.8008 -2.99809,2.85211 -5.03733,4.45193c-2.03467,1.59623 -2.62929,3.01663 -5.23896,3.73368c-1.62433,-0.01547 -5.29934,0.69985 -6.60713,-0.53359c-1.03512,-0.97627 -1.98073,-2.55018 -3.12083,-3.39716c-0.4313,-0.32041 -1.091,-0.1637 -1.55752,-0.43025c-0.61081,-0.349 -1.31228,-2.3717 -1.56543,-3.06203c-0.0873,-1.30435 -0.409,-3.80812 -1.3925,-4.79234c-0.56246,-0.56288 -1.49833,-0.57575 -2.17894,-0.98804c-0.71234,-0.43151 -2.63786,-2.52473 -3.2273,-3.24591c-0.74708,-0.91404 -0.10459,-4.05415 -0.2908,-5.23624c-1.27007,-3.07374 -3.25965,-6.34351 -0.95822,-9.5963c0.49548,-0.0473 0.62025,-0.58578 0.62025,-0.58578c0.25328,-1.13661 0.78414,-1.33402 1.66561,-1.51844c0.32483,0.18288 0.46729,0.09469 0.53278,-0.10949c0.09774,-0.02057 0.19923,-0.04315 0.30384,-0.06763l0.04727,-0.05054l0.01191,0.02867l0.69085,-0.28874c0.27953,-0.10902 0.47897,-0.38252 0.47897,-0.70064c0,-0.41422 -0.26069,-0.68396 -0.67491,-0.68396c-0.08292,0 -0.1624,0.01312 -0.23697,0.03797l-0.747,0.22896l0.02104,0.06812c-0.00351,0.00079 -0.08472,-0.06134 -0.08821,-0.06055c-0.02364,-0.02844 -0.04439,-0.06086 -0.06205,-0.09756c-0.75944,-1.57905 0.05394,-5.32248 1.63753,-6.28729c1.50196,-0.91508 3.94741,-1.33802 5.62448,-2.07152c1.28404,0.02543 2.57614,0.01205 3.86041,0.01205z" data-paper-data="{&quot;noHover&quot;:false,&quot;origItem&quot;:[&quot;Path&quot;,{&quot;applyMatrix&quot;:true,&quot;segments&quot;:[[[610.88235,512.10791],[0,0],[-2.56855,0]],[[603.17653,512.07878],[2.56808,0.05087],[-3.35413,1.46701]],[[591.94867,516.20961],[3.00393,-1.83016],[-3.16717,1.92962]],[[588.69092,528.76748],[-1.51888,-3.1581],[0.03531,0.07341]],[[588.81512,528.96246],[-0.04727,-0.05688],[0.007,-0.00159]],[[588.83613,528.95768],[-0.00701,0.00159],[0,0]],[588.79417,528.8213],[[590.29018,528.36099],[0,0],[0.14914,-0.0497]],[[590.76471,528.28438],[-0.16584,0],[0.82843,0]],[[592.26471,529.78438],[0,-0.82843],[0,0.63623]],[[591.30954,531.18236],[0.55906,-0.21804],[0,0]],[589.92986,531.75723],[589.906,531.69995],[[589.81166,531.80075],[0,0],[-0.20923,0.04895]],[[589.20467,531.93506],[0.19548,-0.04114],[-0.13099,0.40836]],[[588.14024,532.15245],[0.64966,0.36576],[-1.76294,0.36882]],[[584.81453,535.18049],[0.50656,-2.27322],[0,0]],[[583.57581,536.34868],[0.99096,-0.09459],[-4.60286,6.50559]],[[585.50298,555.49655],[-2.54014,-6.14749],[0.37241,2.36419]],[[586.08062,565.9409],[-1.49416,-1.82809],[1.17889,1.44236]],[[592.52586,572.41069],[-1.42468,-0.86302],[1.36121,0.82457]],[[596.87687,574.37636],[-1.12493,-1.12576],[1.967,1.96844]],[[599.64355,583.94243],[-0.1746,-2.60869],[0.50629,1.38066]],[[602.76115,590.05775],[-1.22162,-0.69799],[0.93303,0.5331]],[[605.86893,590.91464],[-0.8626,-0.64082],[2.2802,1.69396]],[[612.09194,597.7027],[-2.07023,-1.95253],[2.61558,2.46688]],[[625.27569,598.76768],[-3.24866,-0.03095],[5.21933,-1.43409]],[[635.72529,591.3069],[-4.06935,3.19247],[4.07848,-3.19964]],[[645.76969,582.42168],[-3.00232,3.6016],[0.16006,-0.88647]],[[646.6652,579.93696],[-0.45117,0.76007],[1.22839,-2.06942]],[[652.33334,575.52702],[-1.82781,1.37701],[3.50255,-2.63871]],[[662.00715,567.72895],[-3.94647,2.10923],[-0.40688,-1.81103]],[[661.12313,562.6592],[0.29456,0.78598],[-2.39836,-6.39973]],[[649.72931,543.81089],[5.34584,4.38682],[-3.98579,-4.61967]],[[641.65836,527.51402],[2.73044,5.45294],[0,0]],[[641.35175,526.71371],[0,0],[-0.2093,-0.18045]],[[641.02863,526.3544],[0,0],[-1.7165,-2.72073]],[[634.0001,520.64454],[2.54886,1.85871],[-5.36005,-3.90871]],[[617,512.81379],[7.11351,-0.00534],[-1.51459,-0.00085]],[[611.01758,512.08359],[1.75679,0.90075],[0,0]]],&quot;closed&quot;:true}]}" fill="#ffffff" stroke="none" stroke-width="0.5"/><path d="M162.63068,294.59336c-0.07781,-1.04728 -0.11897,-2.18586 0.25524,-2.88891c0.97185,-1.82589 2.588,-2.97871 3.57288,-4.74842c0.69233,-1.24403 0.92147,-2.61485 1.70551,-3.82933c1.2543,-2.5074 2.97796,-4.62088 4.26347,-7.10313c1.15984,-2.23958 2.23765,-5.34803 5.12071,-5.93905c1.281,-0.59085 2.11653,-1.07534 3.10529,-2.04719c4.63334,0.26515 9.54473,-2.26001 14.17929,-0.78705c2.34423,1.16481 3.31182,3.37806 4.24122,5.70883c0.6438,1.61452 1.29826,2.62601 -0.6332,2.70506l-0.57006,-0.28444c-0.10423,-0.05487 -0.22243,-0.08538 -0.3484,-0.08538c-0.41422,0 -0.6776,0.2668 -0.6776,0.68102c0,0.23624 0.11032,0.44817 0.28103,0.58564l0.64361,0.52708l0.10753,-0.13156l0.09091,0.04557l0.03341,-0.06698c0.044,0.03776 0.08836,0.07377 0.13258,0.10758l-0.00265,0.01882c0.00943,0.0002 0.01887,0.00042 0.02826,0.00058c0.93269,0.69735 1.92949,0.5877 3.31427,1.5427c3.17151,2.18721 1.88441,7.1932 -0.14292,9.4461c-0.16148,0.20168 -0.32289,0.40497 -0.48437,0.60665l-0.06232,0.05599c0,0 -0.45073,0.45338 -0.10561,0.93931c-0.05524,2.63616 -0.76397,4.8241 -2.8144,6.64697c-1.64345,1.48003 -3.40472,3.24163 -4.04904,5.41139c-0.26685,0.89864 -0.15616,2.15682 -0.63902,2.95818c-0.78363,1.30052 -2.54533,1.463 -3.65703,2.33116c0,0 -0.012,0.00957 -0.03107,0.02761c-0.02004,0.01696 -0.03092,0.02778 -0.03092,0.02778l-0.43602,0.48953c-0.62822,1.25816 -1.11696,2.7742 -2.54947,3.344c-0.83981,0.33405 -1.75426,0.43451 -2.61646,0.65947c-0.05301,-0.02367 -0.08871,-0.0338 -0.08871,-0.0338c-5.27276,-1.49758 -7.94768,-3.61942 -11.32149,-7.70822c-1.81536,-3.3571 -6.90143,-5.0996 -9.72004,-7.90251c-0.00394,-0.09358 -0.00959,-0.19144 -0.01608,-0.29167c0.03662,-0.07241 0.06883,-0.14551 0.0966,-0.21825c0,0 0.17438,-0.49161 -0.17491,-0.80112z" data-paper-data="{&quot;noHover&quot;:false,&quot;origItem&quot;:[&quot;Path&quot;,{&quot;applyMatrix&quot;:true,&quot;segments&quot;:[[[325.70673,590.75947],[0,0],[-0.05553,0.14549]],[[325.51329,591.19516],[0.07323,-0.14483],[0.01298,0.20046]],[[325.54504,591.77724],[-0.00788,-0.18716],[5.63723,5.60581]],[[344.94866,607.53267],[-3.63071,-6.71419],[6.74764,8.17761]],[[367.52973,622.93033],[-10.54552,-2.99516],[0,0]],[[367.70676,622.99795],[-0.10602,-0.04734],[1.72439,-0.44993]],[[372.92771,621.68018],[-1.67963,0.6681],[2.86502,-1.13961]],[[378.0113,614.99591],[-1.25645,2.51632],[0,0]],[378.88052,614.01783],[[378.94217,613.96234],[-0.04008,0.03392],[0.03814,-0.03608]],[[379.00413,613.90719],[0,0],[2.22339,-1.73633]],[[386.29765,609.25521],[-1.56725,2.60104],[0.96572,-1.60272]],[[387.56527,603.3467],[-0.53371,1.79729],[1.28863,-4.33952]],[[395.63853,592.55638],[-3.2869,2.96007],[4.10086,-3.64573]],[[401.25754,579.30292],[-0.11047,5.27232],[-0.69025,-0.97186]],[401.46875,577.4296],[[401.5934,577.31792],[0,0],[0.32296,-0.40336]],[[402.56228,576.10784],[-0.32296,0.40336],[4.05466,-4.50579]],[[402.86111,557.25917],[6.34303,4.37443],[-2.76955,-1.91]],[[396.24124,554.18652],[1.86538,1.3947],[-0.01877,-0.00033]],[[396.18478,554.18543],[0.01887,0.0004],[0,0]],[[396.19012,554.14786],[0,0],[-0.08844,-0.06762]],[[395.92551,553.93336],[0.088,0.07551],[0,0]],[395.85859,554.06719],[395.67708,553.97644],[395.46191,554.23943],[[394.1775,553.18855],[0,0],[-0.34141,-0.27495]],[[393.61765,552.01967],[0,0.47248],[0,-0.82843]],[[395.11765,550.51967],[-0.82843,0],[0.25194,0]],[[395.81546,550.69153],[-0.20845,-0.10974],[0,0]],[[396.95753,551.26256],[0,0],[3.86291,-0.15809]],[[398.07814,545.98919],[1.2876,3.22904],[-1.8588,-4.66153]],[[389.6186,534.58854],[4.68847,2.32963],[-9.26913,-2.94593]],[[361.31855,536.17407],[9.26668,0.53029],[-1.97751,1.9437]],[[355.1244,540.26522],[2.562,-1.1817],[-5.76613,1.18206]],[[344.9182,552.12512],[2.31968,-4.47917],[-2.57102,4.96449]],[[336.42124,566.29114],[2.50859,-5.0148],[-1.56808,2.42896]],[[333.01672,573.92533],[1.38466,-2.48805],[-1.96976,3.53942]],[[325.87105,583.39637],[1.94369,-3.65177],[-0.74841,1.4061]],[[325.35798,589.16095],[-0.15563,-2.09457],[0.69857,0.61903]]],&quot;closed&quot;:true}]}" fill="#ffffff" stroke="none" stroke-width="0.5"/><path d="M180.521,359.11452c0.37904,-1.92056 -0.97852,-4.23509 -0.60315,-6.26639c0.40925,-2.21465 1.80154,-4.54157 2.00539,-6.91632c1.03788,-4.49748 0.53553,-9.4093 0.53553,-13.99723l-0.00006,-0.29416c0,0 -0.00005,-0.08288 -0.02759,-0.1935c-0.44325,-4.80062 -3.23949,-8.4791 -1.18971,-13.50045c0.83966,-1.18633 0.63344,-3.35604 1.64315,-4.32811c1.12912,-1.08704 2.81046,-0.88164 4.15179,-1.42022c1.83707,-0.73764 2.45681,-2.33895 3.27018,-3.9664c0.06482,-0.0358 0.16203,-0.14722 0.16203,-0.14722c1.2838,-1.06192 3.05922,-1.12421 3.99946,-2.73343c0.57851,-0.99011 0.40085,-2.11939 0.72006,-3.1995c0.56052,-1.89662 2.23397,-3.51302 3.6689,-4.80362c2.35941,-2.21263 3.22822,-4.72349 3.24466,-7.91766c0.09753,-0.12203 0.19508,-0.24405 0.29262,-0.36608c2.65509,-2.94965 3.09071,-6.60742 1.14607,-10.25115c-0.38911,-0.72909 -1.85704,-1.78395 -3.19374,-2.31034c2.46779,-2.15751 -2.36326,-9.24057 -5.0229,-10.57617c-3.44486,-1.0376 -6.91381,-0.07972 -10.33786,0.44577c-0.05205,-0.13423 -0.12202,-0.22177 -0.12202,-0.22177c-1.3106,-1.61762 -1.79761,-3.98391 -2.40119,-5.93663c-0.84571,-2.73606 -2.24824,-4.92025 -2.86232,-7.80086c-0.51234,-3.27175 -0.02172,-6.74123 -0.64721,-10.00409c-0.47937,-2.5006 -1.89981,-5.09106 -2.61973,-7.59633c-0.61472,-1.44066 -1.32723,-2.81104 -1.50678,-4.34718c0.07994,-0.17732 0.07998,-0.34619 0.07998,-0.34619l-0.00139,-0.57662c-0.20791,-3.16934 -1.79026,-8.71234 -5.51827,-9.40634c-1.96781,-0.36632 -5.85408,1.64026 -7.84795,2.17624c-0.87176,0.37361 -1.92013,0.50135 -2.6566,1.14008c-1.03699,0.89936 -0.63868,2.48779 -2.08626,2.90882c-0.8685,0.2526 -3.96315,0.22047 -4.47374,1.00408c-1.08854,1.67058 1.3041,2.68924 2.56585,3.39038c0.26054,0.88181 0.45309,1.80374 1.05756,2.47938c2.51961,2.81629 6.38988,3.91956 8.36649,7.32623c1.22939,2.15015 3.11169,4.22744 4.14785,6.41185c0.98131,2.06878 0.03484,3.71785 0.0451,5.79641c0.00819,1.65887 1.11417,2.77136 1.67154,4.22052c2.61396,3.87369 7.74954,6.05872 10.94216,9.61348c-0.38927,-0.02051 -0.8693,-0.01935 -1.25666,-0.08016c0,0 -0.6495,-0.15375 -0.76354,0.58753c-0.0229,0.14883 -0.01143,0.27213 0.02171,0.37455c-0.59555,0.50097 -1.14978,0.80714 -1.98989,1.20451c-3.22672,0.71825 -4.62141,4.11966 -5.95675,6.65614c-1.29376,2.45749 -2.97705,4.53837 -4.22335,7.03233c-0.78224,1.22171 -1.01331,2.59359 -1.71023,3.82873c-0.99463,1.76277 -2.6987,2.90199 -3.60428,4.79288c-0.55907,1.16737 -0.42206,2.77957 -0.34759,4.18718c-0.64973,0.82906 -2.6434,1.82972 -3.42371,1.1442c-0.81642,-0.71723 -0.97049,-2.00103 -1.89369,-2.71536c-1.4391,-1.11352 -3.17711,-2.09665 -4.67662,-3.17705c-0.97631,-0.40636 -2.66748,-1.0072 -3.73376,-0.64306c-0.78931,0.26955 -1.07856,1.20785 -1.83917,1.47649c-2.86802,1.01299 -7.70828,0.10976 -9.74273,-2.18439c-3.59824,-4.9375 -6.21369,-10.51992 -10.59732,-14.90136c-1.81298,-1.64758 -3.76066,-3.82933 -4.63251,-6.12746l-0.53551,-0.68379c0,0 -0.25777,-0.32234 -0.62987,-0.29762c-1.10596,-0.8211 -1.71974,-1.63854 -2.88061,-2.62899c-1.43694,-1.22598 -3.30434,-1.71706 -4.65071,-3.1255c-0.90753,-0.94938 -1.39605,-2.23302 -2.27951,-3.22066c-1.75141,-1.9444 -3.05583,-4.29186 -4.59825,-6.41257c-1.95009,-2.68121 -3.69436,-3.98439 -4.46709,-7.33084c-0.59259,-2.21957 -1.26713,-4.76019 -0.81397,-7.09642c0.45865,-2.3645 0.72217,-4.41955 -0.64886,-6.40906c0.02191,-0.13619 0.00795,-0.2411 0.00795,-0.2411c-0.29484,-2.16421 -1.7992,-5.86402 -0.5712,-7.98739c0.36976,-0.63936 1.41465,-0.74241 1.98713,-1.10228c1.18183,-0.74293 1.48071,-2.17856 2.54499,-2.9947c0.78844,-0.63127 1.40091,-1.06335 1.71957,-2.07353c0.3075,-0.97476 0.15021,-3.07504 1.02051,-3.78095c1.39762,-1.13361 3.01547,-1.96408 4.32249,-3.26341l0.24667,-0.24675c0.29309,-0.06077 0.47668,-0.3133 0.47668,-0.3133c1.5726,-2.16472 3.86627,-2.89688 5.7766,-4.64921c2.14587,-1.96839 3.48214,-4.25173 4.82403,-6.76675c1.90125,-4.42731 4.30796,-8.66626 6.84406,-12.75512c1.0384,-1.67417 2.03193,-3.8054 3.76825,-4.88524l0.05035,-0.06953c3.86281,-0.33524 8.39336,-3.83813 9.95049,-7.63838c0.36905,-0.90069 0.15616,-1.64002 0.64454,-2.52269c0.73566,-2.35647 1.31345,-4.51041 2.34374,-6.74206l0.20561,-0.35408c0,0 0.18943,-0.33142 0.06174,-0.65641c0.43208,-3.0916 1.26018,-5.44694 3.62929,-7.70376c1.47855,-1.40847 3.26852,-2.27182 4.39035,-4.03154c2.14908,-5.56162 4.85168,-11.99617 5.26093,-18.0224c0.00029,-0.55734 0.00071,-1.1149 0.00071,-1.67224l0.0001,-0.5883c0,0 0.00002,-0.02053 -0.00338,-0.05478c2.25012,-4.23964 9.88322,-3.70016 14.04684,-5.447c1.63147,0.01397 3.06835,-0.33442 4.64296,-0.3651c0.06949,0.72624 0.80367,0.6697 0.80367,0.6697c5.01865,-0.38983 10.202,0.1176 15.24149,0.1176c2.0774,0 4.31669,0.21758 6.37099,-0.13045c1.24157,-0.21035 2.49237,-0.84239 3.76879,-0.87196c0.43406,-0.01005 0.58143,0.68992 0.98315,0.85461c1.18441,0.48556 1.95878,-0.37531 2.96815,-0.64678c1.39656,-0.3756 3.02174,-0.34473 4.52558,-0.46318c0.00499,0.05322 0.01253,0.08597 0.01253,0.08597c1.47851,6.39783 5.96598,7.29006 11.60474,9.02695c5.73666,1.23193 11.81954,1.14135 17.66772,1.14135c0.90196,0 2.04058,0.00004 2.94254,0.00004c0,0 0.61408,0.00001 0.73116,-0.5552c1.03223,-0.26915 2.06534,-0.63631 3.09962,-0.80782c3.42294,-0.56758 6.73586,-0.8058 9.76972,-2.72801c1.25504,-0.5762 3.10458,-0.93653 3.79042,-2.27795c0.73464,-1.43686 0.8437,-3.10027 0.5136,-4.70466c1.50801,-0.41156 3.32446,-0.1604 4.86928,-0.1604c3.68628,0 7.37672,0.00117 11.063,0.00117c6.01031,-0.02325 12.55944,-1.03657 18.50342,-0.12069c5.23616,0.47442 12.82597,-1.02175 17.44524,1.68282c1.22003,0.61001 2.39556,1.26744 3.53027,2.02399l0.07321,0.03732c-0.09032,0.47877 0.37692,0.75135 0.37692,0.75135c1.51958,0.87565 1.73032,2.30299 2.62977,3.69846c0.882,1.36839 2.53253,1.99451 3.50875,3.28876c1.08148,1.4338 1.60232,3.139 2.64015,4.57835c0.99354,1.3245 1.92762,2.67947 2.87035,4.04135l0.2749,0.4413c0,0 0.00051,0.00082 0.00153,0.00238c0.01279,0.03381 0.02249,0.0532 0.02249,0.0532c0.66546,1.30594 1.66285,2.60702 2.91258,3.41367c0.83616,0.53971 2.35858,0.83925 3.01389,1.62281c1.41255,1.68899 2.94279,4.01742 4.07689,5.94729c2.76535,3.28082 6.51833,5.41258 8.76854,9.02981c0.01385,0.06447 0.02922,0.10443 0.02922,0.10443c1.12804,2.93214 2.4644,5.87801 5.01139,7.85911c1.64198,1.27717 3.47427,2.15161 5.012,3.55021c2.68642,2.41777 5.99503,3.15341 8.90371,5.12376c2.2695,1.53738 2.11529,3.35603 5.34142,3.73385l0.10952,0.07405c0.8807,1.84397 0.62444,4.01994 1.06114,6.00845c0.47577,2.16642 3.07027,4.05778 3.85583,6.41285c0.56574,1.47154 2.02614,2.68243 2.46103,4.08927c0.52569,1.70056 -0.65606,2.72866 -0.79672,4.31628l-0.31141,0.04896c0,0 -0.52782,0.52825 -0.00353,1.05737c-0.10226,1.95913 0.04719,4.37108 -0.58527,6.1688c-1.03735,2.94859 -2.87368,5.4763 -3.83251,8.42087c-1.76139,2.15482 -2.26405,5.29447 -2.88394,7.91398l-0.28108,0.78391c0,0 -0.16844,0.47201 0.15546,0.78212c-0.4789,3.76277 -5.57079,7.93578 -7.49648,10.95902c-1.58844,2.59755 -0.77657,5.37285 -2.09398,8.00689l-0.27892,0.5008c0,0 -0.20534,0.36986 -0.03019,0.70821c-1.76443,4.26865 -4.5995,7.72453 -6.7401,11.80201c-2.61059,2.56376 -5.6866,1.87651 -8.69016,3.43375c-2.54897,1.32155 -2.77365,4.15028 -4.41178,6.1264c-1.14941,0.25506 -2.35128,0.16188 -3.31731,0.97303c-2.85325,2.39578 -3.92715,7.12715 -6.22447,9.99864c-0.02377,0.03172 -0.28607,0.16659 -0.47132,0.39059c-0.19554,-0.93856 -0.66167,-2.13193 -0.75056,-2.33382c-1.37372,-3.1199 -2.99531,-6.97341 -5.6997,-9.17924c-1.92007,-1.97024 -2.49985,-5.26632 -3.73027,-7.73052l-0.1451,-0.39832c0,0 -0.08323,-0.22168 -0.28079,-0.36924c-0.99464,-1.51519 -2.42787,-2.16714 -3.86304,-3.20782c-2.95536,-2.14301 -5.48373,-4.19819 -9.3826,-4.2009c-0.62029,0.00037 -0.83239,0.03927 -1.44356,-0.03124c-0.06177,-0.00713 -0.25037,-0.02759 -0.34908,-0.02513c-0.03877,-0.08996 -0.08883,-0.16062 -0.14508,-0.2162c3.08571,-1.61411 4.55055,-5.85938 6.18429,-8.68785c0.06453,-0.07109 0.37641,-0.44815 0.13272,-0.86473c0.52472,-1.36551 1.27432,-2.93904 2.01833,-4.19056c0.53976,-0.90794 1.96235,-0.98212 2.73901,-1.65597c1.77169,-1.53715 2.28522,-4.9069 1.64726,-7.04609c-0.27645,-1.29571 -0.71889,-3.17037 -0.46026,-4.48616c0.30978,-1.57606 3.51069,-3.91515 4.85617,-4.98543c0.34057,-0.08351 0.50131,-0.43153 0.50131,-0.43153c1.00937,-2.18963 2.22422,-4.00698 3.72321,-5.895c0.63753,-0.80299 1.48181,-1.07946 1.68783,-2.22432c0.33711,-1.87327 -2.48481,-3.78515 -3.87171,-4.66812c-1.67385,-1.51327 -3.572,-2.44706 -5.46515,-3.62318c-1.62086,-1.00697 -3.05406,-2.74483 -4.89018,-3.31665c-2.54307,-0.79199 -3.68578,0.80449 -3.69765,3.20389c0,5.82227 0.0675,11.96767 -1.15623,17.67634c-1.2523,5.90697 3.39747,10.12346 4.2581,15.61229c-0.11259,0.08552 -0.22553,0.17192 -0.33844,0.25919c-1.27014,0.98167 -2.31003,3.84618 -2.88494,5.32508c0,0 -0.11293,0.29398 -0.00239,0.57402c-1.56257,2.70449 -2.48975,5.18513 -4.90124,7.24696c-0.41818,0.35754 -1.5044,1.36631 -1.78782,2.1174c-1.15422,-0.00071 -2.30847,-0.00093 -3.46263,0.0154c-3.53499,1.41499 -7.12101,2.09287 -8.503,6.07986c-0.30107,0.86857 -0.37521,3.08943 0.11905,4.248c-0.87907,0.32328 -1.4791,0.81502 -1.83915,1.90658l-0.35177,0.29825c-1.52614,2.05337 -2.03179,6.03237 -1.04176,8.49677c0.38944,0.9694 1.21194,1.60307 1.62165,2.57415c0.25052,1.68767 -0.51142,4.27269 0.53276,5.72154c0.58675,0.81414 2.70248,2.97182 3.52384,3.52491c0.53685,0.3615 1.44366,0.27053 1.90163,0.72787c0.82495,0.8238 0.99172,3.04294 1.08621,4.15938c0.38993,1.11437 1.17624,3.29757 2.20528,4.00187c0.428,0.29293 1.01833,0.01351 1.43058,0.32822c1.64767,1.25781 2.47481,3.50214 4.70484,4.11147c1.79406,0.49021 4.21301,0.0949 6.06099,0.08128c2.92951,-0.76159 3.7276,-2.29716 5.94952,-4.03149c1.58915,-1.24041 2.88305,-2.20237 4.09929,-3.41146c0.15191,1.17095 0.55615,2.40036 0.73952,3.36624c1.94925,5.47857 1.38212,11.37437 1.38212,17.10307c0.0007,1.53247 0.20398,2.95932 0.68471,4.41459l0.1388,0.30977c0.0081,0.1424 0.04686,0.2459 0.04686,0.2459c0.83605,2.22316 2.04107,6.10548 0.85195,8.40577c-0.96616,1.869 -2.62028,3.10704 -3.69106,4.92964c-0.10232,1.49671 0.55098,2.11411 0.80025,3.48416c0.5105,2.80583 0.59909,6.0367 0.81417,8.89042l0.12133,0.793c0,0 0.09485,0.61628 0.67354,0.63852c1.75925,2.89007 2.10274,8.64147 1.61021,12.35301c-2.44225,0.02326 -4.87547,0.09823 -7.31832,0.17933c-10.62321,2.11228 -20.80175,0.24777 -31.42782,0.24777c-6.09524,0 -12.19707,0.00221 -18.29231,0.00221c-4.45892,0 -9.05836,-0.38004 -13.41329,0.72286c-10.27812,-0.06619 -20.59984,0.13554 -30.89072,0.13554c-8.48344,0 -16.9601,0.14067 -25.43847,0.14067c-6.5101,0 -13.25396,0.0334 -19.71333,-0.64449z" data-paper-data="{&quot;noHover&quot;:false,&quot;origItem&quot;:[&quot;Path&quot;,{&quot;applyMatrix&quot;:true,&quot;segments&quot;:[[[400.5,719.42303],[-13.0202,0],[16.95673,0]],[[451.35714,719.13732],[-16.96689,0],[20.58176,0]],[[513.11278,718.86659],[-20.55623,-0.13237],[8.70987,-2.2058]],[[539.92857,717.42303],[-8.91784,0],[12.19048,0]],[[576.5,717.42303],[-12.19048,0],[21.25213,0]],[[639.33754,716.93728],[-21.24642,4.22457],[4.88569,-0.1622]],[[653.97075,716.58105],[-4.88449,0.04653],[0.98507,-7.42308]],[[650.7468,691.87779],[3.5185,5.78014],[-1.15737,-0.04447]],[649.3998,690.6007],[[649.15692,689.01489],[0,0],[-0.43016,-5.70743]],[[647.52557,671.23663],[1.021,5.61166],[-0.49854,-2.74009]],[[645.92403,664.26924],[-0.20464,2.99341],[2.14155,-3.64521]],[[653.30259,654.41336],[-1.93233,3.738],[2.37823,-4.60058]],[[651.59551,637.60518],[1.6721,4.44631],[0,0]],[[651.50171,637.11347],[0.0162,0.28479],[0,0]],[[651.22403,636.49401],[0,0],[-0.96147,-2.91054]],[[649.85294,627.66673],[0.0014,3.06495],[0,-11.4574]],[[647.08145,593.47018],[3.89851,10.95715],[-0.36675,-1.93176]],[[645.77031,586.84635],[0.30383,2.34191],[-2.43247,2.41818]],[[637.56883,593.67362],[3.1783,-2.48083],[-4.44386,3.46866]],[[625.66549,601.74225],[5.85903,-1.52317],[-3.69595,0.02726]],[[613.54078,601.58289],[3.58812,0.98042],[-4.46004,-1.21866]],[[604.13107,593.36],[3.29535,2.51562],[-0.8245,-0.62941]],[[601.1212,592.56983],[0.85599,0.58587],[-2.05807,-1.40861]],[[596.70939,584.56751],[0.77987,2.22875],[-0.18897,-2.23288]],[[594.53489,576.25122],[1.6499,1.64759],[-0.91594,-0.91466]],[[590.88591,574.92277],[1.07369,0.723],[-1.64272,-1.10617]],[[583.68409,567.74551],[1.17349,1.62827],[-2.08836,-2.89769]],[[582.61467,556.3075],[0.50105,3.37534],[-0.81942,-1.94216]],[[579.37029,551.16072],[0.77888,1.93881],[-1.98004,-4.9288]],[[581.44706,534.1785],[-3.05229,4.10674],[0,0]],[[582.15025,533.58266],[0,0],[0.7201,-2.18311]],[[585.82669,529.7734],[-1.75814,0.64656],[-0.98851,-2.31713]],[[585.58605,521.28364],[-0.60214,1.73714],[2.76398,-7.97398]],[[602.58818,509.13704],[-7.06997,2.82998],[2.30833,-0.03266]],[[609.5132,509.10736],[-2.30845,-0.00141],[0.56683,-1.50218]],[[613.08817,504.87607],[-0.83635,0.71508],[4.82297,-4.12366]],[[622.88936,490.39315],[-3.12514,5.40897],[-0.22109,-0.56007]],[[622.8941,489.24591],[0,0],[1.14982,-2.95781]],[[628.66386,478.60305],[-2.54028,1.96335],[0.22582,-0.17453]],[[629.34075,478.085],[-0.22517,0.17104],[-1.72127,-10.97767]],[[620.82741,446.88185],[-2.50459,11.81394],[2.44747,-11.41735]],[[623.14706,411.54908],[0,11.64455],[0.02374,-4.7988]],[[630.72154,405.05244],[-5.08614,-1.58398],[3.67224,1.14365]],[[640.5044,411.69106],[-3.24172,-2.01393],[3.78629,2.35224]],[[651.43692,418.94299],[-3.3477,-3.02655],[2.77379,1.76594]],[[659.18223,428.285],[0.67422,-3.74653],[-0.41205,2.28972]],[[655.80707,432.73536],[1.27506,-1.60597],[-2.99798,3.77604]],[[648.36194,444.53061],[2.01875,-4.37925],[0,0]],[[647.35939,445.39402],[0.68114,-0.16701],[-2.69096,2.14056]],[[637.64795,455.36959],[0.61957,-3.15213],[-0.51726,2.6316]],[[638.56922,464.34748],[-0.55291,-2.59142],[1.27592,4.27838]],[[635.27527,478.4484],[3.54338,-3.07429],[-1.55333,1.34769]],[[629.79726,481.76245],[1.07952,-1.81587],[-1.48803,2.50305]],[[625.76044,490.14927],[1.04943,-2.73101],[0.48737,0.83316]],[[625.49492,491.87992],[0.12907,-0.14217],[-3.26749,5.65694]],[[613.12454,509.26882],[6.17142,-3.22822],[0.1125,0.11116]],[[613.41464,509.70148],[-0.07753,-0.17991],[0.19742,-0.00492]],[[613.91698,509.71107],[-0.12354,-0.01425],[1.22233,0.14103]],[[617,509.81379],[-1.24058,0.00074],[7.79774,0.00543]],[[635.76461,518.21833],[-5.91072,-4.28603],[2.87034,2.08137]],[[643.49005,524.63654],[-1.98928,-3.03038],[0.39512,0.29511]],[644.05155,525.37534],[[644.34164,526.17238],[0,0],[2.46084,4.9284]],[[651.8001,541.64022],[-3.84015,-3.94049],[5.40879,4.41167]],[[663.19705,560.00505],[-2.74744,-6.2398],[0.17778,0.40376]],[[664.69743,564.67435],[-0.39109,-1.87712],[0.37051,-0.44799]],[[665.45724,563.81213],[-0.04753,0.06344],[4.59464,-5.74299]],[[677.90226,543.82533],[-5.70649,4.79156],[1.93205,-1.62228]],[[684.53635,541.88099],[-2.29881,0.51012],[3.27625,-3.95225]],[[693.3583,529.63447],[-5.09795,2.64311],[6.00713,-3.11448]],[[710.73774,522.77133],[-5.22119,5.12751],[4.2812,-8.15496]],[[724.21666,499.17765],[-3.52887,8.53731],[-0.3503,-0.6767]],[724.277,497.7618],[[724.83483,496.76062],[0,0],[2.63481,-5.26807]],[[729.02259,480.75333],[-3.17687,5.19511],[3.85138,-6.04647]],[[744.01591,458.84351],[-0.9578,7.52553],[-0.64781,-0.62022]],[743.70503,457.27987],[[744.26726,455.71262],[0,0],[1.23978,-5.23903]],[[750.03582,439.89014],[-3.52279,4.30965],[1.91765,-5.88915]],[[757.7018,423.05374],[-2.07471,5.89717],[1.26493,-3.59544]],[[758.87328,410.72012],[-0.20452,3.91826],[-1.04858,-1.05823]],[758.88052,408.60607],[[759.50332,408.50813],[0,0],[0.28133,-3.17523]],[[761.09749,399.87819],[1.05138,3.40111],[-0.86978,-2.81367]],[[756.17635,391.70268],[1.13147,2.94309],[-1.57112,-4.71014]],[[748.46638,378.88174],[0.95153,4.33283],[-0.87339,-3.97703]],[[746.34565,366.86866],[1.7614,3.68794],[0,0]],[[746.12664,366.72062],[0,0],[-6.45226,-0.75563]],[[735.44541,359.25648],[4.53901,3.07476],[-5.81735,-3.94071]],[[717.64083,349.01445],[5.37283,4.83554],[-3.07546,-2.79719]],[[707.61892,341.91761],[3.28397,2.55434],[-5.09396,-3.96219]],[[697.59998,326.2052],[2.25607,5.86428],[0,0]],[[697.54157,325.99639],[0.02769,0.12893],[-4.50042,-7.23446]],[[680.01028,307.94414],[5.53071,6.56164],[-2.26821,-3.85974]],[[671.86011,296.05351],[2.82509,3.37798],[-1.31063,-1.56713]],[[665.83404,292.80964],[1.67232,1.07942],[-2.49947,-1.61331]],[[660.0113,285.98461],[1.33092,2.61187],[0,0]],[[659.96635,285.87825],[0.02558,0.06761],[-0.00203,-0.00312]],[659.9633,285.87349],[[659.41377,284.99113],[0,0],[-1.88546,-2.72376]],[[653.67577,276.91082],[1.98707,2.64899],[-2.07567,-2.8787]],[[648.39828,267.75644],[2.16297,2.86759],[-1.95245,-2.5885]],[[641.38356,261.18104],[1.764,2.73678],[-1.79891,-2.79094]],[[636.12655,253.78593],[3.03916,1.75131],[0,0]],[[635.37314,252.28353],[-0.18064,0.95754],[0,0]],[[635.22677,252.20892],[0,0],[-2.26941,-1.5131]],[[628.16867,248.16254],[2.44005,1.22002],[-9.23854,-5.40913]],[[593.28856,244.8027],[10.47232,0.94884],[-11.88797,-1.83176]],[[556.29412,245.04908],[12.02062,-0.0465],[-7.37255,0]],[[534.17647,245.04908],[7.37255,0],[-3.08966,0]],[[524.44173,245.37069],[3.01602,-0.82312],[0.66019,3.20878]],[[523.4142,254.77993],[1.46928,-2.87373],[-1.37169,2.68285]],[[515.83622,259.33636],[2.51008,-1.1524],[-6.06773,3.84442]],[[496.30516,264.79342],[6.84589,-1.13516],[-2.06856,0.343]],[[490.10873,266.40924],[2.06445,-0.53829],[-0.23416,1.11043]],[[488.64706,267.51967],[0,0],[-1.80392,0]],[[482.76471,267.51967],[1.80392,0],[-11.69636,0]],[[447.44546,265.23595],[11.47331,2.46386],[-11.27751,-3.47376]],[[424.2443,247.18049],[2.95701,12.79567],[0,0]],[[424.21922,247.00855],[0.00997,0.10645],[-3.00767,0.23691]],[[415.17168,247.934],[2.79312,-0.75121],[-2.01876,0.54295]],[[409.23778,249.22688],[2.36882,0.97113],[-0.80345,-0.32938]],[[407.27202,247.51749],[0.86812,-0.02011],[-2.55285,0.05913]],[[399.73742,249.26045],[2.48313,-0.42069],[-4.10861,0.69607]],[[387,249.51967],[4.1548,0],[-10.07898,0]],[[356.52681,249.27996],[10.03731,-0.77966],[0,0]],[[354.91972,247.94042],[0.13899,1.45247],[-3.1492,0.06135]],[[345.6366,248.66908],[3.26295,0.02794],[-8.32724,3.49367]],[[317.55204,259.55719],[4.50024,-8.47928],[0.00679,0.0685]],[317.55882,259.66673],[[317.55882,260.8432],[0,0],[0,1.11468]],[[317.55799,264.18724],[0.00059,-1.11468],[-0.81851,12.05245]],[[307.0453,300.22433],[4.29816,-11.12325],[-2.24366,3.51946]],[[298.26798,308.28406],[2.9571,-2.81693],[-4.73822,4.51363]],[[291.01379,323.68669],[0.86416,-6.18319],[0.25538,0.64998]],[290.8906,324.99917],[[290.47959,325.70708],[0,0],[-2.06057,4.46331]],[[285.79555,339.18681],[1.47131,-4.71295],[-0.97677,1.76535]],[[284.50765,344.23055],[0.7381,-1.80137],[-3.11426,7.6005]],[[264.61188,359.49911],[7.72562,-0.67047],[0,0]],[[264.5112,359.63811],[0,0],[-3.47264,2.1597]],[[256.97703,369.40427],[2.07679,-3.34834],[-5.0722,8.17772]],[[243.29352,394.90393],[3.8025,-8.85462],[-2.68379,5.03003]],[[233.64744,408.43148],[4.29174,-3.93679],[-3.82065,3.50466]],[[222.09546,417.72546],[3.1452,-4.32943],[0,0]],[[221.14219,418.35175],[0.58618,-0.12154],[0,0]],[[220.6489,418.84504],[0,0],[-2.61403,2.59867]],[[212.00461,425.36886],[2.79523,-2.26722],[-1.7406,1.41181]],[[209.96414,432.92794],[0.61499,-1.94952],[-0.63733,2.02035]],[[206.52528,437.07333],[1.57687,-1.26255],[-2.12857,1.63229]],[[201.43566,443.06035],[2.36365,-1.48585],[-1.14496,0.71975]],[[197.46153,445.26397],[0.73952,-1.27873],[-2.45599,4.24674]],[[198.60449,461.23319],[-0.58968,-4.32841],[0,0]],[[198.58862,461.71523],[0.04382,-0.27237],[2.74205,3.97901]],[[199.88656,474.5288],[0.91729,-4.72899],[-0.90632,4.67246]],[[201.5145,488.71655],[-1.18518,-4.43914],[1.54546,6.69289]],[[210.4484,503.37271],[-3.90017,-5.36241],[3.08484,4.24141]],[[219.64435,516.1927],[-3.50281,-3.8888],[1.76693,1.97526]],[[224.20298,522.63133],[-1.81507,-1.89876],[2.69273,2.81688]],[[233.50386,528.8793],[-2.87387,-2.45197],[2.32175,1.9809]],[[239.26458,534.13479],[-2.21192,-1.64221],[0.7442,-0.04943]],[240.52424,534.72969],[[241.59513,536.09663],[0,0],[1.74371,4.59626]],[[250.85866,548.34584],[-3.62596,-3.29517],[8.76726,8.76288]],[[272.04795,578.13437],[-7.19649,-9.87499],[4.0689,4.58828]],[[291.53085,582.49802],[-5.73604,2.02599],[1.5212,-0.53729]],[[295.20937,579.54541],[-1.57861,0.5391],[2.13256,-0.72828]],[[302.67579,580.82952],[-1.95262,-0.81271],[2.99903,2.16082]],[[312.0264,587.17923],[-2.8782,-2.22703],[1.84639,1.42866]],[[315.81194,592.60715],[-1.63283,-1.43446],[1.56063,1.37104]],[[322.49455,590.43201],[-1.29946,1.65812],[-0.14895,-2.81523]],[[323.18777,582.05473],[-1.11813,2.33473],[1.81114,-3.78177]],[[330.39505,572.46695],[-1.98925,3.52553],[1.39384,-2.47028]],[[333.81405,564.80703],[-1.56447,2.44342],[2.49259,-4.98792]],[[342.25827,550.73776],[-2.58751,4.91498],[2.67068,-5.07295]],[[354.16972,537.42118],[-6.45345,1.43651],[1.68022,-0.79473]],[[358.14932,535.01176],[-1.1911,1.00195],[-0.06628,-0.20483]],[[358.10568,534.26217],[-0.04579,0.29766],[0.22809,-1.48256]],[[359.81632,533.0077],[0,0],[0.77472,0.12161]],[[362.14631,533.24792],[-0.77854,-0.04101],[-6.38524,-7.10953]],[[340.25608,514.00325],[5.22791,7.74738],[-1.11474,-2.89833]],[[336.91178,505.55609],[0.01638,3.31774],[-0.02052,-4.15711]],[[336.82057,493.95531],[1.96262,4.13757],[-2.07232,-4.36882]],[[328.5245,481.12263],[2.45878,4.3003],[-3.95322,-6.81334]],[[311.79193,466.46148],[5.03921,5.63259],[-1.20893,-1.35128]],[[309.67711,461.49994],[0.52108,1.76363],[-2.5235,-1.40227]],[[304.54587,454.71575],[-2.17707,3.34115],[1.02119,-1.56722]],[[313.49368,452.70562],[-1.737,0.50521],[2.89517,-0.84206]],[[317.66696,446.88415],[-2.07399,1.79873],[1.47294,-1.27745]],[[322.98063,444.60195],[-1.74351,0.74722],[3.98774,-1.07195]],[[338.86969,440.30099],[-3.93562,-0.73264],[7.45602,1.38799]],[[349.90884,459.10257],[-0.41582,-6.33868],[0,0]],[349.91176,460.25497],[[349.75189,460.9468],[0.15987,-0.35464],[0.35911,3.0723]],[[352.76627,469.63483],[-1.22944,-2.88132],[1.43985,5.01053]],[[358.00616,484.8154],[-0.95873,-5.00119],[1.25098,6.52571]],[[359.29879,504.80719],[-1.02467,-6.5435],[1.22815,5.76123]],[[365.01993,520.39571],[-1.69142,-5.47212],[1.20717,3.90545]],[[369.81836,532.2591],[-2.6212,-3.23525],[0,0]],[[370.06223,532.70226],[-0.1041,-0.26845],[6.84811,-1.05098]],[[390.73435,531.80374],[-6.88972,-2.0752],[5.31927,2.67121]],[[400.76711,552.93811],[4.93558,-4.31502],[2.6734,1.05277]],[[407.14941,557.5535],[-0.77822,-1.45818],[3.88928,7.28746]],[[404.84949,578.04915],[5.31018,-5.8993],[-0.19507,0.24406]],[[404.26427,578.78132],[0.19507,-0.24406],[-0.03287,6.38834]],[[397.65559,594.77708],[4.71882,-4.42526],[-2.86986,2.58119]],[[390.43473,604.22206],[1.12103,-3.79324],[-0.63842,2.16022]],[[388.87882,610.78413],[1.15701,-1.98022],[-1.88048,3.21845]],[[380.87822,616.2498],[2.5676,-2.12384],[0,0]],[[380.67202,616.38266],[0.12964,-0.07161],[-1.62675,3.2549]],[[374.01347,624.47681],[3.67415,-1.47528],[-2.68266,1.07717]],[[365.70772,627.31563],[2.25825,-2.17407],[-2.01941,1.94413]],[[362.5431,635.81311],[1.67933,-2.37267],[-4.09955,10.04271]],[[364.91552,662.80919],[-0.8865,-9.60124],[0.05507,0.22125]],[364.97059,663.19614],[[364.97059,663.78438],[0,0],[0,9.17586]],[[363.89452,691.77589],[2.07576,-8.99496],[-0.40772,4.74951]],[[359.88264,705.60796],[0.8185,-4.42929],[-0.75074,4.0626]],[[361.0866,718.13954],[0.75808,-3.84112],[12.91875,1.35578]]],&quot;closed&quot;:true}]}" fill="#f8f8f8" stroke="none" stroke-width="0.5"/><path d="M206.77953,72.82398c0.00618,-0.24061 0.24988,-0.24061 0.24988,-0.24061c0.98615,0 4.67854,0.18563 4.704,-1.12318c0.99079,-1.32106 -1.11431,-5.59365 1.5915,-5.5172c2.10499,-1.10228 4.97574,0.05758 5.71469,1.96074c0.00627,0.47495 -0.1594,2.92478 0.07497,3.19522c0.28921,0.33372 2.4001,-0.045 2.85601,-0.045c2.87995,0 3.95588,0.61344 3.95588,3.66177c0,2.96801 -0.20408,4.12597 -3.442,4.13187c-3.59285,-0.44911 -1.51037,1.53178 -2.03895,4.17466c-0.73576,1.77801 -4.70925,1.64026 -6.51852,0.92153c-1.77081,-1.0981 0.83553,-4.91241 -1.89759,-4.86042c-2.03567,0 -5.36765,0.82194 -5.36765,-1.95588c0,-1.3268 -0.19119,-2.56743 -0.16978,-3.88097l0.13735,-0.28966c0,0 0.05006,-0.10013 0.15019,-0.13288zM207.10296,73.08356c-0.00585,0.05579 -0.02641,0.0969 -0.02641,0.0969l-0.09795,0.18093c0.02876,1.27075 0.18316,2.47732 0.18316,3.76609c0,2.27854 3.14864,1.45588 4.86765,1.45588c2.05929,0.05819 1.71865,1.45089 1.89621,3.22938c0.02961,0.29657 -0.02706,1.63571 0.2062,1.67491c1.46678,0.59171 5.28482,0.80761 5.83442,-0.60789c0.54287,-2.71433 -1.48166,-5.03509 2.54929,-4.53122c2.95252,0.00514 2.91093,-0.92329 2.91093,-3.63283c0,-2.79448 -0.82625,-3.16177 -3.45588,-3.16177c-0.71774,0 -2.73963,0.44805 -3.26163,-0.16264c-0.33316,-0.38976 -0.17037,-2.84353 -0.16033,-3.39302c-0.70303,-1.69893 -3.23041,-2.47159 -5.10884,-1.56867c-2.17521,0.04138 -0.28638,3.92783 -1.23203,5.18869c0.03614,1.60334 -3.88055,1.47137 -5.1048,1.46526z" fill="#000000" stroke="none" stroke-width="0.5"/><path d="M212.16958,71.58602c0.94565,-1.26086 -0.92034,-5.16261 1.25486,-5.20399c1.87843,-0.90292 4.43704,-0.13008 5.14007,1.56885c-0.01004,0.54949 -0.16018,3.00961 0.17298,3.39938c0.522,0.6107 2.55829,0.17807 3.27603,0.17807c2.62963,0 3.46292,0.39139 3.46292,3.18587c0,2.70954 0.03577,3.66295 -2.91675,3.6578c-4.03095,-0.50387 -2.02904,1.83857 -2.57191,4.55289c-0.5496,1.4155 -4.40103,1.20305 -5.86781,0.61134c-0.23326,-0.03921 -0.18059,-1.3795 -0.2102,-1.67607c-0.17756,-1.77849 0.14101,-3.18602 -1.91829,-3.24421c-1.71901,0 -4.87839,0.80154 -4.87839,-1.47701c0,-1.28878 -0.15497,-2.51553 -0.18373,-3.78629l0.09814,-0.18196c0,0 0.02067,-0.04164 0.02652,-0.09743c1.22425,0.00611 5.15168,0.11608 5.11555,-1.48726z" data-paper-data="{&quot;noHover&quot;:false,&quot;origItem&quot;:[&quot;Path&quot;,{&quot;applyMatrix&quot;:true,&quot;segments&quot;:[[[414.20592,146.16713],[2.4485,0.01222],[-0.01171,0.11157]],[414.1531,146.36093],[[413.95721,146.72278],[0,0],[0.05752,2.54151]],[[414.32353,154.25497],[0,-2.57755],[0,4.55708]],[[424.05882,157.16673],[-3.43802,0],[4.11859,0.11638]],[[427.85124,163.62549],[-0.35513,-3.55698],[0.05922,0.59313]],[[428.26365,166.97532],[-0.46653,-0.07842],[2.93356,1.18341]],[[439.93249,165.75955],[-1.0992,2.831],[1.08573,-5.42865]],[[445.03107,156.69711],[-8.0619,-1.00774],[5.90504,0.01029]],[[450.85294,149.43144],[0,5.41908],[0,-5.58896]],[[443.94118,143.10791],[5.25926,0],[-1.43548,0]],[[437.41791,142.78262],[1.044,1.22139],[-0.66632,-0.77953]],[[437.09726,135.99658],[-0.02008,1.09898],[-1.40606,-3.39785]],[[426.87958,132.85924],[3.75686,-1.80584],[-4.35042,0.08276]],[[424.41552,143.23661],[1.89129,-2.52172],[0.07227,3.20668]]],&quot;closed&quot;:true}]}" fill="#353535" stroke="none" stroke-width="0.5"/><path d="M209.20588,57.24513c0,5.49036 -4.41131,9.94118 -9.85294,9.94118c-5.44163,0 -9.85294,-4.45081 -9.85294,-9.94118c0,-5.49036 4.41131,-9.94118 9.85294,-9.94118c5.44163,0 9.85294,4.45081 9.85294,9.94118z" fill="#353535" stroke="#000000" stroke-width="0.5"/><path d="M223.20588,55.4216c0,1.62436 -1.26414,2.94118 -2.82353,2.94118c-1.55939,0 -2.82353,-1.31681 -2.82353,-2.94118c0,-1.62436 1.26414,-2.94118 2.82353,-2.94118c1.55939,0 2.82353,1.31681 2.82353,2.94118z" fill="#353535" stroke="#000000" stroke-width="0.5"/><path d="M240.26471,53.4216c0,1.39695 -1.21146,2.52941 -2.70588,2.52941c-1.49442,0 -2.70589,-1.13246 -2.70589,-2.52941c0,-1.39695 1.21147,-2.52941 2.70589,-2.52941c1.49442,0 2.70588,1.13246 2.70588,2.52941z" fill="#353535" stroke="#000000" stroke-width="0.5"/><path d="M233.20588,40.89219c0,2.66396 -2.39659,4.82353 -5.35294,4.82353c-2.95635,0 -5.35294,-2.15957 -5.35294,-4.82353c0,-2.66396 2.39659,-4.82353 5.35294,-4.82353c2.95635,0 5.35294,2.15957 5.35294,4.82353z" fill="#353535" stroke="#000000" stroke-width="0.5"/><path d="M254.79412,52.06866c0,2.53401 -1.90938,4.58823 -4.26471,4.58823c-2.35533,0 -4.26471,-2.05422 -4.26471,-4.58823c0,-2.53401 1.90938,-4.58824 4.26471,-4.58824c2.35533,0 4.26471,2.05423 4.26471,4.58824z" fill="#010300" stroke="#000000" stroke-width="0.5"/><path d="M261.97059,42.74513c0,2.32285 -1.93571,4.20588 -4.32353,4.20588c-2.38782,0 -4.32353,-1.88303 -4.32353,-4.20588c0,-2.32285 1.93571,-4.20588 4.32353,-4.20588c2.38782,0 4.32353,1.88303 4.32353,4.20588z" fill="#010300" stroke="#000000" stroke-width="0.5"/><path d="M271.38236,49.86278c0,2.29035 -1.90938,4.14706 -4.26471,4.14706c-2.35533,0 -4.2647,-1.85671 -4.2647,-4.14706c0,-2.29035 1.90938,-4.14706 4.2647,-4.14706c2.35533,0 4.26471,1.8567 4.26471,4.14706z" fill="#010300" stroke="#000000" stroke-width="0.5"/><path d="M264.44118,58.9216c0,2.22539 -2.02788,4.02941 -4.52941,4.02941c-2.50153,0 -4.52941,-1.80402 -4.52941,-4.02941c0,-2.22539 2.02788,-4.02941 4.52941,-4.02941c2.50153,0 4.52941,1.80402 4.52941,4.02941z" fill="#010300" stroke="#000000" stroke-width="0.5"/><path d="M256.08824,70.24513c0,5.29543 -4.3323,9.58823 -9.67647,9.58823c-5.34417,0 -9.67647,-4.2928 -9.67647,-9.58823c0,-5.29543 4.3323,-9.58824 9.67647,-9.58824c5.34417,0 9.67647,4.2928 9.67647,9.58824z" fill="#353535" stroke="#000000" stroke-width="0.5"/><path d="M204.51681,57.53925c0,2.59898 -2.34768,4.70588 -5.2437,4.70588c-2.89602,0 -5.2437,-2.1069 -5.2437,-4.70588c0,-2.59898 2.34768,-4.70589 5.2437,-4.70589c2.89602,0 5.2437,2.1069 5.2437,4.70589z" fill="#ffffff" stroke="#000000" stroke-width="0.5"/><path d="M251.02941,69.95101c0,2.53401 -2.08056,4.58824 -4.64706,4.58824c-2.5665,0 -4.64706,-2.05423 -4.64706,-4.58824c0,-2.53401 2.08056,-4.58823 4.64706,-4.58823c2.5665,0 4.64706,2.05423 4.64706,4.58823z" fill="#ffffff" stroke="#000000" stroke-width="0.5"/><path d="M252.59427,49.84506c0.2236,0.44721 -0.2236,0.67082 -0.2236,0.67082l-0.0349,-0.06457c-0.29859,0.47729 -0.59379,0.97847 -0.90234,1.47201c0.37157,0.60779 0.74473,1.21562 1.1222,1.82033c0.06068,0.03383 0.4203,0.25591 0.21512,0.66626c-0.2236,0.44721 -0.67082,0.2236 -0.67082,0.2236l-0.31804,-0.24104c-0.32369,-0.51841 -0.63918,-1.03555 -0.9528,-1.55172c-0.40622,0.57664 -0.84822,1.1121 -1.35663,1.54871c0,0 -0.37963,0.3254 -0.70503,-0.05423c-0.32539,-0.37963 0.05424,-0.70502 0.05424,-0.70502c0.54733,-0.46831 1.01316,-1.07365 1.44141,-1.72109c-0.3322,-0.54555 -0.66656,-1.09019 -1.0106,-1.63428c0,0 -0.265,-0.424 0.159,-0.689c0.424,-0.265 0.689,0.159 0.689,0.159c0.25077,0.40705 0.5008,0.81582 0.75091,1.22536c0.21468,-0.35525 0.42459,-0.70969 0.63638,-1.0489l0.43569,-0.29986c0,0 0.44721,-0.2236 0.67082,0.22361z" fill="#4ac7cb" stroke="none" stroke-width="0.5"/><text transform="translate(255.44118,45.62433) scale(0.18716,0.18716)" font-size="40" xml:space="preserve" fill="#e4d449" fill-rule="nonzero" stroke="none" stroke-width="1" stroke-linecap="butt" stroke-linejoin="miter" stroke-miterlimit="10" stroke-dasharray="" stroke-dashoffset="0" font-family="Sans Serif" font-weight="normal" text-anchor="start" style="mix-blend-mode: normal"><tspan x="0" dy="0">Y</tspan></text><text transform="translate(265.02941,52.43315) scale(0.17314,0.17314)" font-size="40" xml:space="preserve" fill="#bc494c" fill-rule="nonzero" stroke="none" stroke-width="1" stroke-linecap="butt" stroke-linejoin="miter" stroke-miterlimit="10" stroke-dasharray="" stroke-dashoffset="0" font-family="Sans Serif" font-weight="normal" text-anchor="start" style="mix-blend-mode: normal"><tspan x="0" dy="0">B</tspan></text><text transform="translate(257.67647,60.84492) scale(0.17314,0.17314)" font-size="40" xml:space="preserve" fill="#49d35c" fill-rule="nonzero" stroke="none" stroke-width="1" stroke-linecap="butt" stroke-linejoin="miter" stroke-miterlimit="10" stroke-dasharray="" stroke-dashoffset="0" font-family="Sans Serif" font-weight="normal" text-anchor="start" style="mix-blend-mode: normal"><tspan x="0" dy="0">A</tspan></text><path d="M231.65779,44.39211c-0.41602,0.27735 -0.69338,-0.13867 -0.69338,-0.13867l-0.12611,-0.20088c-0.73905,-1.626 -1.7023,-2.81146 -2.88797,-3.76306c-1.20857,0.96948 -2.23361,2.0239 -3.50053,3.45355c0,0 -0.33218,0.37371 -0.70588,0.04153c-0.37371,-0.33218 -0.04153,-0.70588 -0.04153,-0.70588c1.23157,-1.38079 2.25736,-2.4344 3.42079,-3.39372c-0.79657,-0.53161 -1.67848,-0.99107 -2.64529,-1.42762c0,0 -0.45518,-0.2069 -0.24828,-0.66208c0.2069,-0.45519 0.66208,-0.24828 0.66208,-0.24828c1.11865,0.51143 2.13576,1.05683 3.04755,1.69767c0.69484,-0.51888 1.45694,-1.02479 2.34626,-1.55837l0.55481,-0.2326c0,0 0.46153,-0.19231 0.65384,0.26923c0.19231,0.46154 -0.26923,0.65384 -0.26923,0.65384l-0.48867,0.20218c-0.74077,0.44446 -1.38649,0.86684 -1.97624,1.2938c1.2226,1.02078 2.22265,2.28091 2.98865,3.96602l0.0478,0.05998c0,0 0.27735,0.41603 -0.13868,0.69338z" fill="#dedede" stroke="none" stroke-width="0.5"/></g></g></g></svg>