<svg version="1.1" xmlns="http://www.w3.org/2000/svg" xmlns:xlink="http://www.w3.org/1999/xlink" width="16.01972" height="23.6" viewBox="0,0,16.01972,23.6"><g transform="translate(-231.99014,-168.2)"><g data-paper-data="{&quot;isPaintingLayer&quot;:true}" fill-rule="nonzero" stroke="none" stroke-width="1" stroke-linecap="butt" stroke-linejoin="miter" stroke-miterlimit="10" stroke-dasharray="" stroke-dashoffset="0" style="mix-blend-mode: normal"><g><path d="M243.23458,190.5c-0.4,0.1 -0.9,0.2 -1.3,0.2c-0.9,0.6 -2,1 -3.2,1.1h-0.4c-3.3,0 -6,-2.5 -6.3,-5.8v-0.1c0,-0.5 -0.1,-1.6 0,-2.8c0,-0.6 0.1,-1.5 0.1,-1.7c0,-0.8 0.2,-1.6 0.5,-2.4c-0.2,-0.8 -0.1,-1.6 0,-2.4v-0.3c0.1,-0.7 0.3,-2.1 1,-3.5c1.3,-2.4 3.7,-3.9 6.4,-3.9c0.9,-0.5 1.8,-0.7 2.8,-0.7h0.3c2,0.1 3.13333,1.18333 4.23333,2.78333c0.59054,-0.52493 -1.2328,8.78764 -0.49829,8.52104c0.21015,-0.07628 1.70226,4.4144 0.91051,6.92351c-0.65835,2.08636 -3.95535,4.48071 -4.54556,4.07211z" fill="#ffffff"/><path d="M245.16958,186.83519c0.7776,-1.29525 -1.03504,2.11844 -1.50459,1.47281c-0.99146,0.61966 -2.23078,0.99146 -3.34617,0.99146h-0.74359c0,0.12393 -0.12394,0.12394 -0.12394,0.24787c-0.61966,0.61966 -1.48718,1.11538 -2.3547,1.11538h-0.24787c-1.73505,0 -3.22223,-1.36325 -3.34616,-3.22223v-0.12393c0,-0.61966 -0.12393,-1.73505 0,-2.97437c0,-0.86753 0.12393,-2.23077 0.12393,-2.23077c0,-0.86753 0.37179,-1.61111 0.86752,-2.23077c-0.49573,-0.99146 -0.61966,-2.10684 -0.37179,-3.34616v-0.24787c0.12393,-0.74359 0.24786,-1.85898 0.74359,-2.97437c0.86753,-1.61112 2.47864,-2.47864 4.33762,-2.47864h0.86752c0.61966,-0.49573 1.36325,-0.86752 2.23078,-0.86752c1.85898,0 3.34616,1.61111 3.34616,3.47009l-0.64054,6.17353c0.06186,-0.05519 -0.23774,1.17368 0.1888,2.5706c0.515,1.68664 0.79037,3.90642 -0.02657,4.6549z" fill="#f9a83a"/><path d="M239.32737,179.50883c1.48719,0.24786 4.58549,0.74359 4.58549,3.84189c0,0.86753 -0.49573,1.85898 -1.23932,2.47864c-0.86753,0.74359 -1.98291,1.11539 -3.0983,0.86753c-0.86753,-0.12393 -1.61112,-0.49573 -2.10685,-0.86753v1.36325c0,0.37179 -0.37179,0.74359 -0.74359,0.74359c-0.3718,0 -0.7436,-0.3718 -0.7436,-0.74359c0,-0.12393 -0.12393,-1.23931 0,-2.7265c0.12393,-0.86753 0.12394,-2.35471 0.12394,-2.35471c0,-0.37179 0.3718,-0.74359 0.74359,-0.74359c0.3718,0 0.7436,0.3718 0.7436,0.74359v0.24786c0,0.37179 0.12393,0.99146 0.24786,1.48719c0.24786,0.49573 0.99146,0.86753 1.23932,0.99146c0.24786,0 0.37179,0.12393 0.61966,0.12393c0.74359,0.12393 1.48719,0.00001 1.98291,-0.49572c0.49573,-0.37179 0.74359,-0.86753 0.74359,-1.36326c0,-1.23932 -1.36326,-1.61112 -3.34616,-1.98291c-1.85898,-0.37179 -2.60257,-1.85898 -2.35471,-4.21368v-0.24786c0.12393,-1.23932 0.3718,-3.34617 2.7265,-2.97437c0.86753,0 1.61112,0.61966 2.23078,1.23932v-1.36325c0,-0.37179 0.3718,-0.74359 0.74359,-0.74359c0.37179,0 0.74359,0.37179 0.74359,0.74359c0,0.12393 -0.24786,4.83335 -0.24786,4.83335c-0.12393,0.37179 -0.49572,0.74359 -0.86752,0.61966c-0.3718,-0.12393 -0.61966,-0.3718 -0.61966,-0.61966v-0.49572c-0.12393,-0.37179 -0.12393,-0.74359 -0.3718,-1.23932c-0.24786,-0.74359 -0.74359,-1.11539 -0.99146,-1.36325c-0.24786,-0.24786 -0.49572,-0.3718 -0.74359,-0.3718c-0.74359,0 -0.86752,0.37179 -1.11538,1.85898v0.24786c-0.24787,1.73505 0.24786,2.35471 1.11538,2.47864" fill="#ffffff"/></g></g></g></svg>